<svg width="28" height="41" viewBox="0 0 28 41" fill="none" xmlns="http://www.w3.org/2000/svg">
<path fill-rule="evenodd" clip-rule="evenodd" d="M0 14.0875C0 6.29913 6.26 0 14 0C21.74 0 28 6.29913 28 14.0875C28 24.6531 14 40.25 14 40.25C14 40.25 0 24.6531 0 14.0875Z" fill="#727E84"/>
<circle cx="14" cy="14" r="11.375" fill="white"/>
<path d="M23.9338 13.1765H21V21H19.0441V11.4064L14.1544 7.30882L9.26471 11.4064V21H7.30882V13.1765H4.375L14.1544 4.375L23.9338 13.1765Z" fill="#727E84"/>
<path fill-rule="evenodd" clip-rule="evenodd" d="M14.1545 11.2206V12.4208C15.7754 12.4208 17.0883 13.853 17.0883 15.6213C17.0883 16.2494 16.9196 16.8335 16.6335 17.3256L16.0981 16.7415C16.2632 16.4094 16.3548 16.0254 16.3548 15.6213C16.3548 14.2971 15.3683 13.2209 14.1545 13.2209V14.4211L12.6876 12.8208L14.1545 11.2206ZM11.9541 15.6213C11.9541 16.9455 12.9406 18.0217 14.1545 18.0217V16.8215L15.6214 18.4218L14.1545 20.0221V18.8219C12.5335 18.8219 11.2206 17.3896 11.2206 15.6213C11.2206 14.9932 11.3893 14.4091 11.6754 13.917L12.2108 14.5011C12.0458 14.8332 11.9541 15.2172 11.9541 15.6213Z" fill="#727E84"/>
</svg>
