<svg width="28" height="41" viewBox="0 0 28 41" fill="none" xmlns="http://www.w3.org/2000/svg">
<path fill-rule="evenodd" clip-rule="evenodd" d="M0 14.0875C0 6.29913 6.26 0 14 0C21.74 0 28 6.29913 28 14.0875C28 24.6531 14 40.25 14 40.25C14 40.25 0 24.6531 0 14.0875Z" fill="#727E84"/>
<path d="M14 25.375C20.2822 25.375 25.375 20.2822 25.375 14C25.375 7.71776 20.2822 2.625 14 2.625C7.71776 2.625 2.625 7.71776 2.625 14C2.625 20.2822 7.71776 25.375 14 25.375Z" fill="white"/>
<path d="M20.2333 13.2917C18.925 9.89167 14.2666 9.70834 15.3916 4.76667C15.475 4.4 15.0833 4.11667 14.7666 4.30834C11.7416 6.09167 9.56665 9.66667 11.3916 14.35C11.5416 14.7333 11.0916 15.0917 10.7666 14.8417C9.25831 13.7 9.09998 12.0583 9.23331 10.8833C9.28331 10.45 8.71665 10.2417 8.47498 10.6C7.90831 11.4667 7.33331 12.8667 7.33331 14.975C7.64998 19.6417 11.5916 21.075 13.0083 21.2583C15.0333 21.5167 17.225 21.1417 18.8 19.7C20.5333 18.0917 21.1666 15.525 20.2333 13.2917ZM12.5 17.4833C13.7 17.1917 14.3166 16.325 14.4833 15.5583C14.7583 14.3667 13.6833 13.2 14.4083 11.3167C14.6833 12.875 17.1333 13.85 17.1333 15.55C17.2 17.6583 14.9166 19.4667 12.5 17.4833Z" fill="#727E84"/>
</svg>
