<svg width="28" height="41" viewBox="0 0 28 41" fill="none" xmlns="http://www.w3.org/2000/svg">
<path fill-rule="evenodd" clip-rule="evenodd" d="M0 14.0875C0 6.29913 6.26 0 14 0C21.74 0 28 6.29913 28 14.0875C28 24.6531 14 40.25 14 40.25C14 40.25 0 24.6531 0 14.0875Z" fill="#727E84"/>
<circle cx="14" cy="14" r="11.375" fill="white"/>
<path d="M23.9338 13.1765H21V21H19.0441V11.4064L14.1544 7.30882L9.26471 11.4064V21H7.30882V13.1765H4.375L14.1544 4.375L23.9338 13.1765Z" fill="#727E84"/>
<path d="M16.6744 12.0732C15.9624 11.5689 15.0934 11.325 14.2177 11.3835H11.375V20.125H13.2614V17.0129H14.0686C14.9821 17.0703 15.8867 16.8076 16.6217 16.2715C16.9237 15.9985 17.1593 15.6623 17.3112 15.2878C17.4631 14.9132 17.4991 14.4375 17.4991 14.1077C17.5064 13.5625 17.4694 13.3492 17.3265 12.9966C17.1835 12.6441 16.9605 12.3282 16.6744 12.0732ZM15.1828 15.1594C14.8 15.4101 14.3431 15.5284 13.8843 15.4957H13.2614V12.9094H14.1388C14.5411 12.882 14.9408 12.9916 15.2706 13.2198C15.3973 13.3461 15.4949 13.4977 15.557 13.6642C15.619 13.8308 15.644 14.0084 15.6303 14.1853C15.6396 14.3709 15.6039 14.556 15.5261 14.7254C15.4483 14.8948 15.3307 15.0435 15.1828 15.1594Z" fill="#727E84"/>
</svg>
