<svg width="28" height="41" viewBox="0 0 28 41" fill="none" xmlns="http://www.w3.org/2000/svg">
<path fill-rule="evenodd" clip-rule="evenodd" d="M0 14.0875C0 6.29913 6.26 0 14 0C21.74 0 28 6.29913 28 14.0875C28 24.6531 14 40.25 14 40.25C14 40.25 0 24.6531 0 14.0875Z" fill="#727E84"/>
<circle cx="14" cy="14" r="11.375" fill="white"/>
<path fill-rule="evenodd" clip-rule="evenodd" d="M7.875 6.9475C9.44268 5.35766 11.6091 4.375 14.0039 4.375C16.3988 4.375 18.5652 5.35766 20.125 6.95549L19.0142 8.08196C17.738 6.77973 15.9655 5.97283 14.0039 5.97283C12.0424 5.97283 10.2699 6.77973 8.98577 8.07397L7.875 6.9475ZM10.1044 9.20842L11.2152 10.3349C11.9321 9.61587 12.9168 9.16848 14.0039 9.16848C15.0911 9.16848 16.0758 9.61587 16.7927 10.3349L17.9035 9.20842C16.903 8.1938 15.5244 7.57065 14.0039 7.57065C12.4835 7.57065 11.1049 8.1938 10.1044 9.20842ZM16.3673 11.5652C16.8006 11.5652 17.1551 11.9247 17.1551 12.3641V21.9511C17.1551 22.3905 16.8006 22.75 16.3673 22.75H11.6406C11.2073 22.75 10.8528 22.3905 10.8528 21.9511V12.3641C10.8528 11.9247 11.2073 11.5652 11.6406 11.5652H16.3673ZM12.4284 14.7609C12.4284 15.6397 13.1374 16.3587 14.0039 16.3587C14.8705 16.3587 15.5795 15.6397 15.5795 14.7609C15.5795 13.8821 14.8705 13.163 14.0039 13.163C13.1374 13.163 12.4284 13.8821 12.4284 14.7609Z" fill="#727E84"/>
</svg>
