<svg width="28" height="41" viewBox="0 0 28 41" fill="none" xmlns="http://www.w3.org/2000/svg">
<path fill-rule="evenodd" clip-rule="evenodd" d="M0 14.0875C0 6.29913 6.26 0 14 0C21.74 0 28 6.29913 28 14.0875C28 24.6531 14 40.25 14 40.25C14 40.25 0 24.6531 0 14.0875Z" fill="#727E84"/>
<path d="M14 25.375C20.2822 25.375 25.375 20.2822 25.375 14C25.375 7.71776 20.2822 2.625 14 2.625C7.71776 2.625 2.625 7.71776 2.625 14C2.625 20.2822 7.71776 25.375 14 25.375Z" fill="white"/>
<path fill-rule="evenodd" clip-rule="evenodd" d="M21.5 13H23V21H21.5V13ZM15.5 18H17V21H15.5V18ZM20 15.5H18.5V21H20V15.5Z" fill="#727E84"/>
<path fill-rule="evenodd" clip-rule="evenodd" d="M17 4V8C18.1 8 19 8.9 19 10V14.0224C18.8353 14.0076 18.6685 14 18.5 14C15.4624 14 13 16.4624 13 19.5C13 20.4002 13.2163 21.2499 13.5997 22H10.5V19L7 15.5V10C7 8.9 7.9 8 9 8V4H11V8H15V4H17Z" fill="#727E84"/>
</svg>
