<svg width="28" height="41" viewBox="0 0 28 41" fill="none" xmlns="http://www.w3.org/2000/svg">
<path fill-rule="evenodd" clip-rule="evenodd" d="M0 14.0875C0 6.29913 6.26 0 14 0C21.74 0 28 6.29913 28 14.0875C28 24.6531 14 40.25 14 40.25C14 40.25 0 24.6531 0 14.0875Z" fill="#727E84"/>
<circle cx="14" cy="14" r="11.375" fill="white"/>
<path fill-rule="evenodd" clip-rule="evenodd" d="M21.1875 13.4444H22.5V20.25H21.1875V13.4444ZM15.9375 17.6979H17.25V20.25H15.9375V17.6979ZM19.875 15.5712H18.5625V20.25H19.875V15.5712Z" fill="#727E84"/>
<path fill-rule="evenodd" clip-rule="evenodd" d="M18.125 10.0417H13.0208V8H11.5625V10.0417H6.45833C5.65292 10.0417 5 10.6511 5 11.4028V15.4861C5 16.2378 5.65292 16.8472 6.45833 16.8472H11.5625V18.8889H13.0208V16.8472H14.4792L15.9375 15.4861H11.1354L15.5104 11.4028H18.125V13.4444L19.5833 12.0833V11.4028C19.5833 10.6511 18.9304 10.0417 18.125 10.0417ZM13.448 11.4028H6.45833V15.4861H9.07297L13.448 11.4028Z" fill="#727E84"/>
</svg>
