<svg width="28" height="41" viewBox="0 0 28 41" fill="none" xmlns="http://www.w3.org/2000/svg">
<path fill-rule="evenodd" clip-rule="evenodd" d="M0 14.0875C0 6.29913 6.26 0 14 0C21.74 0 28 6.29913 28 14.0875C28 24.6531 14 40.25 14 40.25C14 40.25 0 24.6531 0 14.0875Z" fill="#727E84"/>
<path d="M14 25.375C20.2822 25.375 25.375 20.2822 25.375 14C25.375 7.71776 20.2822 2.625 14 2.625C7.71776 2.625 2.625 7.71776 2.625 14C2.625 20.2822 7.71776 25.375 14 25.375Z" fill="white"/>
<path fill-rule="evenodd" clip-rule="evenodd" d="M5.79999 13.6C5.79999 8.744 9.74399 4.8 14.6 4.8C19.456 4.8 23.4 8.744 23.4 13.6H21.8C21.8 9.624 18.576 6.4 14.6 6.4C10.624 6.4 7.39999 9.624 7.39999 13.6H5.79999ZM14.6 8C11.504 8 8.99999 10.504 8.99999 13.6H10.6C10.6 11.392 12.392 9.6 14.6 9.6C16.808 9.6 18.6 11.392 18.6 13.6H20.2C20.2 10.504 17.696 8 14.6 8ZM15.4 15.432C16.104 15.12 16.6 14.424 16.6 13.6C16.6 12.496 15.704 11.6 14.6 11.6C13.496 11.6 12.6 12.496 12.6 13.6C12.6 14.416 13.096 15.12 13.8 15.432V18.072L11.072 20.8L12.2 21.928L14.6 19.528L17 21.928L18.128 20.8L15.4 18.072V15.432Z" fill="#727E84"/>
</svg>
