<svg width="28" height="41" viewBox="0 0 28 41" fill="none" xmlns="http://www.w3.org/2000/svg">
<path fill-rule="evenodd" clip-rule="evenodd" d="M0 14.0875C0 6.29913 6.26 0 14 0C21.74 0 28 6.29913 28 14.0875C28 24.6531 14 40.25 14 40.25C14 40.25 0 24.6531 0 14.0875Z" fill="#727E84"/>
<path d="M14 25.375C20.2822 25.375 25.375 20.2822 25.375 14C25.375 7.71776 20.2822 2.625 14 2.625C7.71776 2.625 2.625 7.71776 2.625 14C2.625 20.2822 7.71776 25.375 14 25.375Z" fill="white"/>
<path fill-rule="evenodd" clip-rule="evenodd" d="M4.79999 13.6C4.79999 8.744 8.74399 4.8 13.6 4.8C18.456 4.8 22.4 8.744 22.4 13.6H20.8C20.8 9.624 17.576 6.4 13.6 6.4C9.62399 6.4 6.39999 9.624 6.39999 13.6H4.79999ZM13.6 8C10.504 8 7.99999 10.504 7.99999 13.6H9.59999C9.59999 11.392 11.392 9.6 13.6 9.6C15.808 9.6 17.6 11.392 17.6 13.6H19.2C19.2 10.504 16.696 8 13.6 8ZM14.4 15.432C15.104 15.12 15.6 14.424 15.6 13.6C15.6 12.496 14.704 11.6 13.6 11.6C12.496 11.6 11.6 12.496 11.6 13.6C11.6 14.416 12.096 15.12 12.8 15.432V18.072L10.072 20.8L11.2 21.928L13.6 19.528L16 21.928L17.128 20.8L14.4 18.072V15.432Z" fill="#727E84"/>
<path fill-rule="evenodd" clip-rule="evenodd" d="M21.6667 16.5333H22.6667V21.8667H21.6667V16.5333ZM17.6667 19.8667H18.6667V21.8667H17.6667V19.8667ZM20.6667 18.2H19.6667V21.8667H20.6667V18.2Z" fill="#727E84"/>
</svg>
