<svg width="28" height="41" viewBox="0 0 28 41" fill="none" xmlns="http://www.w3.org/2000/svg">
<path fill-rule="evenodd" clip-rule="evenodd" d="M0 14.0875C0 6.29913 6.26 0 14 0C21.74 0 28 6.29913 28 14.0875C28 24.6531 14 40.25 14 40.25C14 40.25 0 24.6531 0 14.0875Z" fill="#727E84"/>
<circle cx="14" cy="14" r="11.375" fill="white"/>
<path fill-rule="evenodd" clip-rule="evenodd" d="M14.875 8.75H21C21.9665 8.75 22.75 9.5335 22.75 10.5V15.75C22.75 16.7165 21.9665 17.5 21 17.5H14.875V20.125H13.125V17.5H7C6.0335 17.5 5.25 16.7165 5.25 15.75V10.5C5.25 9.5335 6.0335 8.75 7 8.75H13.125V6.125H14.875V8.75ZM21 10.5H17.8624L12.6124 15.75H21V10.5ZM7 10.5H15.3876L10.1376 15.75H7V10.5Z" fill="#727E84"/>
</svg>
