<svg width="28" height="41" viewBox="0 0 28 41" fill="none" xmlns="http://www.w3.org/2000/svg">
<path fill-rule="evenodd" clip-rule="evenodd" d="M0 14.0875C0 6.29913 6.26 0 14 0C21.74 0 28 6.29913 28 14.0875C28 24.6531 14 40.25 14 40.25C14 40.25 0 24.6531 0 14.0875Z" fill="#727E84"/>
<circle cx="14" cy="14" r="11.375" fill="white"/>
<path d="M18.0833 9.33333V5.25H16.0417V9.33333H11.9583V5.25H9.91667V9.33333C8.79375 9.33333 7.875 10.2521 7.875 11.375V16.9896L11.4479 20.5625V23.625H16.5521V20.5625L20.125 16.9896V11.375C20.125 10.2521 19.2063 9.33333 18.0833 9.33333Z" fill="#727E84"/>
</svg>
