<svg width="28" height="41" viewBox="0 0 28 41" fill="none" xmlns="http://www.w3.org/2000/svg">
<path fill-rule="evenodd" clip-rule="evenodd" d="M0 14.0875C0 6.29913 6.26 0 14 0C21.74 0 28 6.29913 28 14.0875C28 24.6531 14 40.25 14 40.25C14 40.25 0 24.6531 0 14.0875Z" fill="#727E84"/>
<circle cx="14" cy="14" r="11.375" fill="white"/>
<path d="M20.545 14.3063C19.1712 10.7363 14.28 10.5438 15.4612 5.355C15.5487 4.97 15.1375 4.6725 14.805 4.87375C11.6287 6.74625 9.345 10.5 11.2612 15.4175C11.4187 15.82 10.9462 16.1962 10.605 15.9337C9.02125 14.735 8.855 13.0113 8.995 11.7775C9.0475 11.3225 8.4525 11.1038 8.19875 11.48C7.60375 12.39 7 13.86 7 16.0737C7.3325 20.9737 11.4713 22.4788 12.9587 22.6713C15.085 22.9425 17.3862 22.5488 19.04 21.035C20.86 19.3463 21.525 16.6513 20.545 14.3063ZM12.425 18.7075C13.685 18.4012 14.3325 17.4912 14.5075 16.6862C14.7962 15.435 13.6675 14.21 14.4287 12.2325C14.7175 13.8687 17.29 14.8925 17.29 16.6775C17.36 18.8912 14.9625 20.79 12.425 18.7075Z" fill="#007BC1"/>
</svg>
