<svg width="28" height="41" viewBox="0 0 28 41" fill="none" xmlns="http://www.w3.org/2000/svg">
<path fill-rule="evenodd" clip-rule="evenodd" d="M0 14.0875C0 6.29913 6.26 0 14 0C21.74 0 28 6.29913 28 14.0875C28 24.6531 14 40.25 14 40.25C14 40.25 0 24.6531 0 14.0875Z" fill="#727E84"/>
<path d="M14 25.375C20.2822 25.375 25.375 20.2822 25.375 14C25.375 7.71776 20.2822 2.625 14 2.625C7.71776 2.625 2.625 7.71776 2.625 14C2.625 20.2822 7.71776 25.375 14 25.375Z" fill="white"/>
<path fill-rule="evenodd" clip-rule="evenodd" d="M17 4V7.80952C18.1 7.80952 19 8.66667 19 9.71428V12.5714C15.6863 12.5714 13 15.1298 13 18.2857C13 19.3265 13.2922 20.3024 13.8027 21.1429H10.5V18.2857L7 14.9524V9.71428C7 8.66667 7.9 7.80952 9 7.80952V4H11V7.80952H15V4H17Z" fill="#727E84"/>
<path fill-rule="evenodd" clip-rule="evenodd" d="M13.5 16.8571L14.5 17.8095C16.985 15.4429 21.015 15.4429 23.5 17.8095L24.5 16.8571C21.465 13.9667 16.54 13.9667 13.5 16.8571ZM17.5 20.6667L19 22.0952L20.5 20.6667C19.675 19.8762 18.33 19.8762 17.5 20.6667ZM16.5 19.7143L15.5 18.7619C17.435 16.9238 20.57 16.9238 22.5 18.7619L21.5 19.7143C20.12 18.4 17.88 18.4 16.5 19.7143Z" fill="#727E84"/>
</svg>
