<svg width="29" height="41" viewBox="0 0 29 41" fill="none" xmlns="http://www.w3.org/2000/svg">
<path fill-rule="evenodd" clip-rule="evenodd" d="M0.869568 14.0875C0.869568 6.29913 7.12957 0 14.8696 0C22.6096 0 28.8696 6.29913 28.8696 14.0875C28.8696 24.6531 14.8696 40.25 14.8696 40.25C14.8696 40.25 0.869568 24.6531 0.869568 14.0875Z" fill="#727E84"/>
<circle cx="14.8696" cy="14" r="11.375" fill="white"/>
<path d="M15.525 14.3845H14.2654V12.2368H15.5579C15.9056 12.243 16.1782 12.3496 16.3756 12.5564C16.573 12.7631 16.6717 13.0342 16.6717 13.3694C16.6717 13.6952 16.573 13.9459 16.3756 14.1214C16.1814 14.2968 15.8978 14.3845 15.525 14.3845Z" fill="#727E84"/>
<path fill-rule="evenodd" clip-rule="evenodd" d="M18.9529 5.25002V9.33335C20.0758 9.33335 20.9946 10.2521 20.9946 11.375V16.9896L17.4216 20.5625V23.625H12.3175V20.5625L8.74457 16.9896V11.375C8.74457 10.2521 9.66332 9.33335 10.7862 9.33335V5.25002H12.8279V9.33335H16.9112V5.25002H18.9529ZM14.2654 17.9375V15.5266H15.5015C16.3129 15.5266 16.9474 15.3339 17.4048 14.9485C17.8654 14.56 18.0957 14.0305 18.0957 13.36C18.0957 12.9182 17.9907 12.525 17.7808 12.1804C17.5709 11.8326 17.2701 11.5647 16.8785 11.3767C16.49 11.1887 16.0388 11.0947 15.525 11.0947H12.8555V17.9375H14.2654Z" fill="#727E84"/>
</svg>
