<svg width="28" height="41" viewBox="0 0 28 41" fill="none" xmlns="http://www.w3.org/2000/svg">
<path fill-rule="evenodd" clip-rule="evenodd" d="M0 14.0875C0 6.29913 6.26 0 14 0C21.74 0 28 6.29913 28 14.0875C28 24.6531 14 40.25 14 40.25C14 40.25 0 24.6531 0 14.0875Z" fill="#727E84"/>
<circle cx="14" cy="14" r="11.375" fill="white"/>
<path fill-rule="evenodd" clip-rule="evenodd" d="M5.17706 11.5938L6.78123 13.1979C9.09123 10.8879 12.2274 9.92542 15.2272 10.2944L16.1816 8.14479C12.3076 7.455 8.17685 8.60198 5.17706 11.5938ZM17.1281 8.38542C16.9917 8.38542 16.8714 8.45761 16.7992 8.5699L16.7431 8.69021L12.5883 18.0345C12.46 18.2671 12.3798 18.5238 12.3798 18.8045C12.3798 19.6948 13.1016 20.4167 13.992 20.4167C14.762 20.4167 15.4116 19.8713 15.564 19.1414L15.5721 19.1173L17.5291 8.78646C17.5291 8.56188 17.3527 8.38542 17.1281 8.38542ZM22.8229 11.5938L21.2187 13.1979C20.2402 12.2194 19.1173 11.4895 17.9141 10.9922L18.3392 8.73032C19.9755 9.33188 21.5075 10.2783 22.8229 11.5938ZM18.0104 16.4063L19.6146 14.8021C18.9729 14.1604 18.251 13.6631 17.481 13.2861L17.0399 15.6282C17.3767 15.8448 17.7056 16.1015 18.0104 16.4063ZM9.98956 16.4063L8.3854 14.8021C9.99758 13.1899 12.1391 12.4279 14.2486 12.4921L13.222 14.8021C12.0429 14.9705 10.8959 15.4999 9.98956 16.4063Z" fill="#727E84"/>
</svg>
