<svg width="28" height="41" viewBox="0 0 28 41" fill="none" xmlns="http://www.w3.org/2000/svg">
<path fill-rule="evenodd" clip-rule="evenodd" d="M0 14.0875C0 6.29913 6.26 0 14 0C21.74 0 28 6.29913 28 14.0875C28 24.6531 14 40.25 14 40.25C14 40.25 0 24.6531 0 14.0875Z" fill="#727E84"/>
<circle cx="14" cy="14" r="11.375" fill="white"/>
<rect x="11.375" y="7.875" width="3.5" height="2.625" fill="#727E84"/>
<rect x="7.875" y="14" width="9.625" height="2.625" fill="#727E84"/>
<rect x="14" y="10.5" width="3.5" height="1.75" transform="rotate(90 14 10.5)" fill="#727E84"/>
<rect x="7.875" y="13.125" width="4.375" height="1.75" transform="rotate(90 7.875 13.125)" fill="#727E84"/>
<rect x="21.875" y="20.125" width="4.375" height="0.875" transform="rotate(-180 21.875 20.125)" fill="#727E84"/>
<path d="M18.375 10.5C17.4085 10.5 14.875 9.91237 14.875 9.1875C14.875 8.46263 17.4085 7.875 18.375 7.875C19.3415 7.875 20.125 8.46263 20.125 9.1875C20.125 9.91237 19.3415 10.5 18.375 10.5Z" fill="#727E84"/>
<path d="M7.875 10.5C8.8415 10.5 11.375 9.91237 11.375 9.1875C11.375 8.46263 8.8415 7.875 7.875 7.875C6.9085 7.875 6.125 8.46263 6.125 9.1875C6.125 9.91237 6.9085 10.5 7.875 10.5Z" fill="#727E84"/>
<path d="M18.375 17.5C18.375 16.8 17.7917 16.625 17.5 16.625V14C20.3 14 21 16.3333 21 17.5V19.25H18.375V17.5Z" fill="#727E84"/>
</svg>
