<svg width="28" height="41" viewBox="0 0 28 41" fill="none" xmlns="http://www.w3.org/2000/svg">
<path fill-rule="evenodd" clip-rule="evenodd" d="M0 14.0875C0 6.29913 6.26 0 14 0C21.74 0 28 6.29913 28 14.0875C28 24.6531 14 40.25 14 40.25C14 40.25 0 24.6531 0 14.0875Z" fill="#727E84"/>
<circle cx="14" cy="14" r="11.375" fill="white"/>
<path d="M17.15 14.9625V7.2625C17.15 5.66475 15.743 4.375 14 4.375C12.257 4.375 10.85 5.66475 10.85 7.2625V14.9625C9.5795 15.8384 8.75 17.2436 8.75 18.8125C8.75 21.469 11.102 23.625 14 23.625C16.898 23.625 19.25 21.469 19.25 18.8125C19.25 17.2436 18.4205 15.8384 17.15 14.9625ZM12.95 13.0375V7.2625C12.95 6.73312 13.4225 6.3 14 6.3C14.5775 6.3 15.05 6.73312 15.05 7.2625V8.225H14V9.1875H15.05V11.1125H14V12.075H15.05V13.0375H12.95Z" fill="#727E84"/>
</svg>
