<?xml version = "1.0" standalone = "no"?>
<!DOCTYPE svg PUBLIC "-//W3C//DTD SVG 20000802//EN" "http://www.w3.org/TR/2000/CR-SVG-20000802/DTD/svg-20000802.dtd" >
<svg width="800.0px" height="600.0px" >
<rect width="100%" height="100%" color="#000000" />
<path id="LxLine" style="fill:none;opacity:1.0;stroke:rgb(153,153,255); stroke-width:2.0;" d="M 110.0 180.0 L 350.0 180.0 M 350.0 180.0 L 344.0 176.0 L 344.0 177.0 L 348.0 180.0 L 344.0 183.0 L 344.0 184.0 Z " />
<path id="LxLine" style="fill:none;opacity:1.0;stroke:rgb(153,153,255); stroke-width:1.0;" d="M 380.0 0.0 L 380.0 490.0 M 380.0 490.0 L 384.0 484.0 L 383.0 484.0 L 380.0 488.0 L 377.0 484.0 L 376.0 484.0 Z " />
<path id="LxLine" style="fill:none;opacity:1.0;stroke:rgb(153,153,255); stroke-width:2.0;" d="M 510.0 20.0 L 510.0 350.0 M 510.0 350.0 L 514.0 344.0 L 513.0 344.0 L 510.0 348.0 L 507.0 344.0 L 506.0 344.0 Z " />
<path id="LxLine" style="fill:none;opacity:1.0;stroke:rgb(153,153,255); stroke-width:1.0;" d="M 80.0 50.0 L 80.0 210.0 M 80.0 50.0 L 76.0 56.0 L 77.0 56.0 L 80.0 52.0 L 83.0 56.0 L 84.0 56.0 Z " />
<path id="LxLine" style="fill:none;opacity:1.0;stroke:rgb(153,153,255); stroke-width:1.0;" d="M 80.0 140.0 L 480.0 140.0 " />
<path id="LxLine" style="fill:none;opacity:1.0;stroke:rgb(153,153,255); stroke-width:1.0;" d="M 480.0 190.0 L 480.0 50.0 M 480.0 50.0 L 476.0 56.0 L 477.0 56.0 L 480.0 52.0 L 483.0 56.0 L 484.0 56.0 Z " />
<text id="LxAbstractText" x="100" y="80" style="fill:rgb(153,153,255);font-family:'Arial Bold';font-style:normal;font-weight:normal;font-size:14;opacity:1.0;" >8560</text>
<text id="LxAbstractText" x="100" y="112" style="fill:rgb(255,255,255);font-family:'Arial Bold';font-style:normal;font-weight:normal;font-size:12;opacity:1.0;" >-0.33</text>
<a xlink:href="8560_Detail.svg">
<image id="LxAbstractImage" xlink:href="images/RedBox.gif" x="70" y="90" width="20" height="20" />
</a>
<text id="LxAbstractText" x="136" y="112" style="fill:rgb(255,255,255);font-family:'Arial Bold';font-style:normal;font-weight:normal;font-size:12;opacity:1.0;" >MVAR</text>
<text id="LxAbstractText" x="136" y="100" style="fill:rgb(255,255,255);font-family:'Arial Bold';font-style:normal;font-weight:normal;font-size:12;opacity:1.0;" >MW</text>
<text id="LxAbstractText" x="100" y="98" style="fill:rgb(255,255,255);font-family:'Arial Bold';font-style:normal;font-weight:normal;font-size:12;opacity:1.0;" >60.99</text>
<a xlink:href="sublist.jsp">
<image id="LxAbstractImage" xlink:href="images\SubListButton.gif" x="70" y="240" width="117" height="22" />
</a>
<image id="LxAbstractImage" xlink:href="images\DetailButton2.gif" x="70" y="270" width="89" height="22" />
<image id="LxAbstractImage" xlink:href="images\OneLineButton2.gif" x="70" y="300" width="89" height="22" />
<image id="LxAbstractImage" xlink:href="images\OnelineGraphics\Capacitor.gif" x="500" y="320" width="20" height="20" />
<image id="LxAbstractImage" xlink:href="images\OnelineGraphics\ClosedMotor.gif" x="500" y="40" width="40" height="20" />
<image id="LxAbstractImage" xlink:href="images\OnelineGraphics\GreenBox.gif" x="500" y="100" width="20" height="20" />
<image id="LxAbstractImage" xlink:href="images\OnelineGraphics\OpenMotor.gif" x="500" y="70" width="40" height="20" />
<image id="LxAbstractImage" xlink:href="images\OnelineGraphics\SwitchLeft.gif" x="260" y="170" width="20" height="20" />
<image id="LxAbstractImage" xlink:href="images\OnelineGraphics\SwitchRight.gif" x="220" y="170" width="20" height="20" />
<image id="LxAbstractImage" xlink:href="images\OnelineGraphics\TransformerBG.gif" x="480" y="240" width="60" height="20" />
<image id="LxAbstractImage" xlink:href="images\OnelineGraphics\TransformerBY.gif" x="480" y="280" width="60" height="20" />
<image id="LxAbstractImage" xlink:href="images\OnelineGraphics\GroundY.gif" x="500" y="140" width="20" height="20" />
<image id="LxAbstractImage" xlink:href="images\OnelineGraphics\GroundG.gif" x="500" y="190" width="20" height="20" />
<image id="LxAbstractImage" xlink:href="images\Buttons\CancelButton.gif" x="250" y="370" width="71" height="22" />
<image id="LxAbstractImage" xlink:href="images\Buttons\DetailButton.gif" x="140" y="370" width="102" height="21" />
<image id="LxAbstractImage" xlink:href="images\Buttons\FaultButton.gif" x="250" y="400" width="102" height="21" />
<image id="LxAbstractImage" xlink:href="images\Buttons\GasButton.gif" x="138" y="395" width="102" height="21" />
<image id="LxAbstractImage" xlink:href="images\Buttons\GraphButton.gif" x="142" y="424" width="103" height="22" />
<image id="LxAbstractImage" xlink:href="images\Buttons\LTCButton.gif" x="250" y="430" width="103" height="22" />
<image id="LxAbstractImage" xlink:href="images\Buttons\OKButton.gif" x="132" y="450" width="71" height="22" />
<image id="LxAbstractImage" xlink:href="images\Buttons\OneLineButton.gif" x="250" y="460" width="103" height="22" />
<image id="LxAbstractImage" xlink:href="images\Buttons\PowerButton.gif" x="120" y="480" width="103" height="22" />
<image id="LxAbstractImage" xlink:href="images\Buttons\SetupButton.gif" x="250" y="490" width="103" height="22" />
<image id="LxAbstractImage" xlink:href="images\Buttons\UpdateButton.gif" x="130" y="510" width="89" height="22" />
</svg>