<?xml version = "1.0" standalone = "no"?>
<!DOCTYPE svg PUBLIC "-//W3C//DTD SVG 20000802//EN" "http://www.w3.org/TR/2000/CR-SVG-20000802/DTD/svg-20000802.dtd" >
<svg width = "540.0px" height="532.0px">
    <defs>
    </defs>
    <path id="LxLine"  style="fill:rgb(204,204,153);stroke:rgb(153,153,255); stroke-width:2.0;" d="M110,180,l240,0,M350,180,l-6,-4,l0,1,l4,3,l-4,3,l0,1,z" >
    </path>
    <path id="LxLine1"  style="fill:rgb(204,204,153);stroke:rgb(153,153,255); stroke-width:1.0;" d="M380,0,l0,490,M380,490,l4,-6,l-1,0,l-3,4,l-3,-4,l-1,0,z" >
    </path>
    <path id="LxLine2"  style="fill:rgb(204,204,153);stroke:rgb(153,153,255); stroke-width:2.0;" d="M510,20,l0,330,M510,350,l4,-6,l-1,0,l-3,4,l-3,-4,l-1,0,z" >
    </path>
    <path id="LxLine3"  style="fill:rgb(204,204,153);stroke:rgb(153,153,255); stroke-width:1.0;" d="M80,50,l0,160,M80,50,l-4,6,l1,0,l3,-4,l3,4,l1,0,z" >
    </path>
    <path id="LxLine4"  style="fill:rgb(204,204,153);stroke:rgb(153,153,255); stroke-width:1.0;" d="M80,140,l400,0," >
    </path>
    <path id="LxLine5"  style="fill:rgb(204,204,153);stroke:rgb(153,153,255); stroke-width:1.0;" d="M480,190,l0,-140,M480,50,l-4,6,l1,0,l3,-4,l3,4,l1,0,z" >
    </path>
    <text id="LxAbstractText"  style="fill:rgb(153,153,255);font-family:'Arial';font-style:normal;font-weight:normal;font-size:14;" transform="translate(100,80.165)"  >8560    </text>
    <text id="LxAbstractText1"  style="fill:rgb(255,255,255);font-family:'Arial';font-style:normal;font-weight:normal;font-size:12;" transform="translate(100,112.713) scale(1 1)"  >-0.33    </text>
    <image id="LxAbstractImage" x="70" y="90" width="20" height="20"  style="fill:none;stroke:rgb(0,0,0); stroke-width:1.0;"     xlink:href="null" >
    </image>
    <text id="LxAbstractText2"  style="fill:rgb(255,255,255);font-family:'Arial';font-style:normal;font-weight:normal;font-size:12;" transform="translate(136,112.713)"  >MVAR    </text>
    <text id="LxAbstractText3"  style="fill:rgb(255,255,255);font-family:'Arial';font-style:normal;font-weight:normal;font-size:12;" transform="translate(136,100.713)"  >MW    </text>
    <text id="LxAbstractText4"  style="fill:rgb(255,255,255);font-family:'Arial';font-style:normal;font-weight:normal;font-size:12;" transform="translate(100,98.713) scale(1 1)"  >60.99    </text>
    <image id="LxAbstractImage1" x="70" y="240" width="117" height="22"  style="fill:none;stroke:rgb(0,0,0); stroke-width:1.0;"     xlink:href="null" >
    </image>
    <image id="LxAbstractImage2" x="70" y="270" width="89" height="22"  style="fill:none;stroke:rgb(0,0,0); stroke-width:1.0;"     xlink:href="null" >
    </image>
    <image id="LxAbstractImage3" x="70" y="300" width="89" height="22"  style="fill:none;stroke:rgb(0,0,0); stroke-width:1.0;"     xlink:href="null" >
    </image>
    <image id="LxAbstractImage4" x="500" y="320" width="20" height="20"  style="fill:none;stroke:rgb(0,0,0); stroke-width:1.0;"     xlink:href="null" >
    </image>
    <image id="LxAbstractImage5" x="500" y="40" width="40" height="20"  style="fill:none;stroke:rgb(0,0,0); stroke-width:1.0;"     xlink:href="null" >
    </image>
    <image id="LxAbstractImage6" x="500" y="100" width="20" height="20"  style="fill:none;stroke:rgb(0,0,0); stroke-width:1.0;"     xlink:href="null" >
    </image>
    <image id="LxAbstractImage7" x="500" y="70" width="40" height="20"  style="fill:none;stroke:rgb(0,0,0); stroke-width:1.0;"     xlink:href="null" >
    </image>
    <image id="LxAbstractImage8" x="260" y="170" width="20" height="20"  style="fill:none;stroke:rgb(0,0,0); stroke-width:1.0;"     xlink:href="null" >
    </image>
    <image id="LxAbstractImage9" x="220" y="170" width="20" height="20"  style="fill:none;stroke:rgb(0,0,0); stroke-width:1.0;"     xlink:href="null" >
    </image>
    <image id="LxAbstractImage10" x="480" y="240" width="60" height="20"  style="fill:none;stroke:rgb(0,0,0); stroke-width:1.0;"     xlink:href="null" >
    </image>
    <image id="LxAbstractImage11" x="480" y="280" width="60" height="20"  style="fill:none;stroke:rgb(0,0,0); stroke-width:1.0;"     xlink:href="null" >
    </image>
    <image id="LxAbstractImage12" x="500" y="140" width="20" height="20"  style="fill:none;stroke:rgb(0,0,0); stroke-width:1.0;"     xlink:href="null" >
    </image>
    <image id="LxAbstractImage13" x="500" y="190" width="20" height="20"  style="fill:none;stroke:rgb(0,0,0); stroke-width:1.0;"     xlink:href="null" >
    </image>
    <image id="LxAbstractImage14" x="250" y="370" width="71" height="22"  style="fill:none;stroke:rgb(0,0,0); stroke-width:1.0;"     xlink:href="null" >
    </image>
    <image id="LxAbstractImage15" x="140" y="370" width="102" height="21"  style="fill:none;stroke:rgb(0,0,0); stroke-width:1.0;"     xlink:href="null" >
    </image>
    <image id="LxAbstractImage16" x="250" y="400" width="102" height="21"  style="fill:none;stroke:rgb(0,0,0); stroke-width:1.0;"     xlink:href="null" >
    </image>
    <image id="LxAbstractImage17" x="138" y="395" width="102" height="21"  style="fill:none;stroke:rgb(0,0,0); stroke-width:1.0;"     xlink:href="null" >
    </image>
    <image id="LxAbstractImage18" x="142" y="424" width="103" height="22"  style="fill:none;stroke:rgb(0,0,0); stroke-width:1.0;"     xlink:href="null" >
    </image>
    <image id="LxAbstractImage19" x="250" y="430" width="103" height="22"  style="fill:none;stroke:rgb(0,0,0); stroke-width:1.0;"     xlink:href="null" >
    </image>
    <image id="LxAbstractImage20" x="132" y="450" width="71" height="22"  style="fill:none;stroke:rgb(0,0,0); stroke-width:1.0;"     xlink:href="null" >
    </image>
    <image id="LxAbstractImage21" x="250" y="460" width="103" height="22"  style="fill:none;stroke:rgb(0,0,0); stroke-width:1.0;"     xlink:href="null" >
    </image>
    <image id="LxAbstractImage22" x="120" y="480" width="103" height="22"  style="fill:none;stroke:rgb(0,0,0); stroke-width:1.0;"     xlink:href="null" >
    </image>
    <image id="LxAbstractImage23" x="250" y="490" width="103" height="22"  style="fill:none;stroke:rgb(0,0,0); stroke-width:1.0;"     xlink:href="null" >
    </image>
    <image id="LxAbstractImage24" x="130" y="510" width="89" height="22"  style="fill:none;stroke:rgb(0,0,0); stroke-width:1.0;"     xlink:href="null" >
    </image>
</svg>