<?xml version = "1.0" standalone = "no"?>
<!DOCTYPE svg PUBLIC "-//W3C//DTD SVG 20000802//EN" "http://www.w3.org/TR/2000/CR-SVG-20000802/DTD/svg-20000802.dtd" >
<svg width = "860.0px" height="610.0px">
    <defs>
    </defs>
    <path id="LxLine"  style="fill:none;stroke:rgb(255,255,255); stroke-width:1.0;" d="M110,70,l110,70," >
    </path>
    <path id="LxLine1"  style="fill:none;stroke:rgb(255,255,255); stroke-width:1.0;" d="M270,100,l110,70," >
    </path>
    <path id="LxLine2"  style="fill:none;stroke:rgb(255,255,255); stroke-width:1.0;" d="M70,110,l110,70," >
    </path>
    <rect id="LxRectangle" x="70" y="340" width="60" height="70"   style="fill:none;stroke:rgb(255,255,255); stroke-width:1.0;"   >
    </rect>
    <rect id="LxRectangle1" x="290" y="150" width="60" height="70"   style="fill:none;stroke:rgb(255,255,255); stroke-width:1.0;"   >
    </rect>
    <rect id="LxRectangle2" x="50" y="190" width="40" height="90"   style="fill:none;stroke:rgb(255,255,255); stroke-width:1.0;"   >
    </rect>
    <rect id="LxRectangle3" x="210" y="390" width="40" height="90"   style="fill:none;stroke:rgb(255,255,255); stroke-width:1.0;"   >
    </rect>
    <rect id="LxRectangle4" x="230" y="260" width="40" height="90"   style="fill:none;stroke:rgb(255,255,255); stroke-width:1.0;"   >
    </rect>
    <rect id="LxRectangle5" x="390" y="240" width="40" height="90"   style="fill:none;stroke:rgb(255,255,255); stroke-width:1.0;"   >
    </rect>
    <rect id="LxRectangle6" x="150" y="320" width="40" height="90"   style="fill:none;stroke:rgb(255,255,255); stroke-width:1.0;"   >
    </rect>
    <rect id="LxRectangle7" x="460" y="210" width="40" height="90"   style="fill:none;stroke:rgb(255,255,255); stroke-width:1.0;"   >
    </rect>
    <rect id="LxRectangle8" x="130" y="290" width="40" height="90"   style="fill:none;stroke:rgb(255,255,255); stroke-width:1.0;"   >
    </rect>
    <rect id="LxRectangle9" x="450" y="310" width="40" height="90"   style="fill:none;stroke:rgb(255,255,255); stroke-width:1.0;"   >
    </rect>
    <rect id="LxRectangle10" x="330" y="400" width="40" height="90"   style="fill:none;stroke:rgb(255,255,255); stroke-width:1.0;"   >
    </rect>
    <rect id="LxRectangle11" x="570" y="350" width="40" height="90"   style="fill:none;stroke:rgb(255,255,255); stroke-width:1.0;"   >
    </rect>
    <rect id="LxRectangle12" x="450" y="440" width="40" height="90"   style="fill:none;stroke:rgb(255,255,255); stroke-width:1.0;"   >
    </rect>
    <rect id="LxRectangle13" x="650" y="120" width="40" height="90"   style="fill:none;stroke:rgb(255,255,255); stroke-width:1.0;"   >
    </rect>
    <rect id="LxRectangle14" x="530" y="210" width="40" height="90"   style="fill:none;stroke:rgb(255,255,255); stroke-width:1.0;"   >
    </rect>
    <rect id="LxRectangle15" x="450" y="310" width="40" height="90"   style="fill:none;stroke:rgb(255,255,255); stroke-width:1.0;"   >
    </rect>
    <rect id="LxRectangle16" x="330" y="400" width="40" height="90"   style="fill:none;stroke:rgb(255,255,255); stroke-width:1.0;"   >
    </rect>
    <path id="LxLine3"  style="fill:none;stroke:rgb(255,255,255); stroke-width:1.0;" d="M230,90,l110,70," >
    </path>
    <path id="LxLine4"  style="fill:none;stroke:rgb(255,255,255); stroke-width:1.0;" d="M390,120,l110,70," >
    </path>
    <path id="LxLine5"  style="fill:none;stroke:rgb(255,255,255); stroke-width:1.0;" d="M190,130,l110,70," >
    </path>
    <rect id="LxRectangle17" x="190" y="360" width="60" height="70"   style="fill:none;stroke:rgb(255,255,255); stroke-width:1.0;"   >
    </rect>
    <rect id="LxRectangle18" x="410" y="170" width="60" height="70"   style="fill:none;stroke:rgb(255,255,255); stroke-width:1.0;"   >
    </rect>
    <rect id="LxRectangle19" x="170" y="210" width="40" height="90"   style="fill:none;stroke:rgb(255,255,255); stroke-width:1.0;"   >
    </rect>
    <rect id="LxRectangle20" x="330" y="410" width="40" height="90"   style="fill:none;stroke:rgb(255,255,255); stroke-width:1.0;"   >
    </rect>
    <rect id="LxRectangle21" x="350" y="280" width="40" height="90"   style="fill:none;stroke:rgb(255,255,255); stroke-width:1.0;"   >
    </rect>
    <rect id="LxRectangle22" x="510" y="260" width="40" height="90"   style="fill:none;stroke:rgb(255,255,255); stroke-width:1.0;"   >
    </rect>
    <rect id="LxRectangle23" x="270" y="340" width="40" height="90"   style="fill:none;stroke:rgb(255,255,255); stroke-width:1.0;"   >
    </rect>
    <rect id="LxRectangle24" x="580" y="230" width="40" height="90"   style="fill:none;stroke:rgb(255,255,255); stroke-width:1.0;"   >
    </rect>
    <rect id="LxRectangle25" x="250" y="310" width="40" height="90"   style="fill:none;stroke:rgb(255,255,255); stroke-width:1.0;"   >
    </rect>
    <rect id="LxRectangle26" x="690" y="370" width="40" height="90"   style="fill:none;stroke:rgb(255,255,255); stroke-width:1.0;"   >
    </rect>
    <rect id="LxRectangle27" x="570" y="460" width="40" height="90"   style="fill:none;stroke:rgb(255,255,255); stroke-width:1.0;"   >
    </rect>
    <rect id="LxRectangle28" x="770" y="140" width="40" height="90"   style="fill:none;stroke:rgb(255,255,255); stroke-width:1.0;"   >
    </rect>
    <rect id="LxRectangle29" x="650" y="230" width="40" height="90"   style="fill:none;stroke:rgb(255,255,255); stroke-width:1.0;"   >
    </rect>
    <rect id="LxRectangle30" x="570" y="330" width="40" height="90"   style="fill:none;stroke:rgb(255,255,255); stroke-width:1.0;"   >
    </rect>
    <rect id="LxRectangle31" x="450" y="420" width="40" height="90"   style="fill:none;stroke:rgb(255,255,255); stroke-width:1.0;"   >
    </rect>
    <path id="LxLine6"  style="fill:none;stroke:rgb(255,255,255); stroke-width:1.0;" d="M190,40,l110,70," >
    </path>
    <path id="LxLine7"  style="fill:none;stroke:rgb(255,255,255); stroke-width:1.0;" d="M350,70,l110,70," >
    </path>
    <path id="LxLine8"  style="fill:none;stroke:rgb(255,255,255); stroke-width:1.0;" d="M150,80,l110,70," >
    </path>
    <rect id="LxRectangle32" x="150" y="310" width="60" height="70"   style="fill:none;stroke:rgb(255,255,255); stroke-width:1.0;"   >
    </rect>
    <rect id="LxRectangle33" x="370" y="120" width="60" height="70"   style="fill:none;stroke:rgb(255,255,255); stroke-width:1.0;"   >
    </rect>
    <rect id="LxRectangle34" x="130" y="160" width="40" height="90"   style="fill:none;stroke:rgb(255,255,255); stroke-width:1.0;"   >
    </rect>
    <rect id="LxRectangle35" x="290" y="360" width="40" height="90"   style="fill:none;stroke:rgb(255,255,255); stroke-width:1.0;"   >
    </rect>
    <rect id="LxRectangle36" x="310" y="230" width="40" height="90"   style="fill:none;stroke:rgb(255,255,255); stroke-width:1.0;"   >
    </rect>
    <rect id="LxRectangle37" x="470" y="210" width="40" height="90"   style="fill:none;stroke:rgb(255,255,255); stroke-width:1.0;"   >
    </rect>
    <rect id="LxRectangle38" x="230" y="290" width="40" height="90"   style="fill:none;stroke:rgb(255,255,255); stroke-width:1.0;"   >
    </rect>
    <rect id="LxRectangle39" x="540" y="180" width="40" height="90"   style="fill:none;stroke:rgb(255,255,255); stroke-width:1.0;"   >
    </rect>
    <rect id="LxRectangle40" x="210" y="260" width="40" height="90"   style="fill:none;stroke:rgb(255,255,255); stroke-width:1.0;"   >
    </rect>
    <rect id="LxRectangle41" x="650" y="320" width="40" height="90"   style="fill:none;stroke:rgb(255,255,255); stroke-width:1.0;"   >
    </rect>
    <rect id="LxRectangle42" x="530" y="410" width="40" height="90"   style="fill:none;stroke:rgb(255,255,255); stroke-width:1.0;"   >
    </rect>
    <rect id="LxRectangle43" x="730" y="90" width="40" height="90"   style="fill:none;stroke:rgb(255,255,255); stroke-width:1.0;"   >
    </rect>
    <rect id="LxRectangle44" x="610" y="180" width="40" height="90"   style="fill:none;stroke:rgb(255,255,255); stroke-width:1.0;"   >
    </rect>
    <rect id="LxRectangle45" x="530" y="280" width="40" height="90"   style="fill:none;stroke:rgb(255,255,255); stroke-width:1.0;"   >
    </rect>
    <rect id="LxRectangle46" x="410" y="370" width="40" height="90"   style="fill:none;stroke:rgb(255,255,255); stroke-width:1.0;"   >
    </rect>
    <path id="LxLine9"  style="fill:none;stroke:rgb(255,255,255); stroke-width:1.0;" d="M50,150,l110,70," >
    </path>
    <path id="LxLine10"  style="fill:none;stroke:rgb(255,255,255); stroke-width:1.0;" d="M210,180,l110,70," >
    </path>
    <path id="LxLine11"  style="fill:none;stroke:rgb(255,255,255); stroke-width:1.0;" d="M10,190,l110,70," >
    </path>
    <rect id="LxRectangle47" x="10" y="420" width="60" height="70"   style="fill:none;stroke:rgb(255,255,255); stroke-width:1.0;"   >
    </rect>
    <rect id="LxRectangle48" x="230" y="230" width="60" height="70"   style="fill:none;stroke:rgb(255,255,255); stroke-width:1.0;"   >
    </rect>
    <rect id="LxRectangle49" x="-10" y="270" width="40" height="90"   style="fill:none;stroke:rgb(255,255,255); stroke-width:1.0;"   >
    </rect>
    <rect id="LxRectangle50" x="150" y="470" width="40" height="90"   style="fill:none;stroke:rgb(255,255,255); stroke-width:1.0;"   >
    </rect>
    <rect id="LxRectangle51" x="170" y="340" width="40" height="90"   style="fill:none;stroke:rgb(255,255,255); stroke-width:1.0;"   >
    </rect>
    <rect id="LxRectangle52" x="330" y="320" width="40" height="90"   style="fill:none;stroke:rgb(255,255,255); stroke-width:1.0;"   >
    </rect>
    <rect id="LxRectangle53" x="90" y="400" width="40" height="90"   style="fill:none;stroke:rgb(255,255,255); stroke-width:1.0;"   >
    </rect>
    <rect id="LxRectangle54" x="400" y="290" width="40" height="90"   style="fill:none;stroke:rgb(255,255,255); stroke-width:1.0;"   >
    </rect>
    <rect id="LxRectangle55" x="70" y="370" width="40" height="90"   style="fill:none;stroke:rgb(255,255,255); stroke-width:1.0;"   >
    </rect>
    <rect id="LxRectangle56" x="510" y="430" width="40" height="90"   style="fill:none;stroke:rgb(255,255,255); stroke-width:1.0;"   >
    </rect>
    <rect id="LxRectangle57" x="390" y="520" width="40" height="90"   style="fill:none;stroke:rgb(255,255,255); stroke-width:1.0;"   >
    </rect>
    <rect id="LxRectangle58" x="590" y="200" width="40" height="90"   style="fill:none;stroke:rgb(255,255,255); stroke-width:1.0;"   >
    </rect>
    <rect id="LxRectangle59" x="470" y="290" width="40" height="90"   style="fill:none;stroke:rgb(255,255,255); stroke-width:1.0;"   >
    </rect>
    <rect id="LxRectangle60" x="390" y="390" width="40" height="90"   style="fill:none;stroke:rgb(255,255,255); stroke-width:1.0;"   >
    </rect>
    <rect id="LxRectangle61" x="270" y="480" width="40" height="90"   style="fill:none;stroke:rgb(255,255,255); stroke-width:1.0;"   >
    </rect>
    <path id="LxLine12"  style="fill:none;stroke:rgb(255,255,255); stroke-width:1.0;" d="M110,70,l110,70," >
    </path>
    <path id="LxLine13"  style="fill:none;stroke:rgb(255,255,255); stroke-width:1.0;" d="M270,100,l110,70," >
    </path>
    <path id="LxLine14"  style="fill:none;stroke:rgb(255,255,255); stroke-width:1.0;" d="M70,110,l110,70," >
    </path>
    <rect id="LxRectangle62" x="70" y="340" width="60" height="70"   style="fill:none;stroke:rgb(255,255,255); stroke-width:1.0;"   >
    </rect>
    <rect id="LxRectangle63" x="290" y="150" width="60" height="70"   style="fill:none;stroke:rgb(255,255,255); stroke-width:1.0;"   >
    </rect>
    <rect id="LxRectangle64" x="50" y="190" width="40" height="90"   style="fill:none;stroke:rgb(255,255,255); stroke-width:1.0;"   >
    </rect>
    <rect id="LxRectangle65" x="210" y="390" width="40" height="90"   style="fill:none;stroke:rgb(255,255,255); stroke-width:1.0;"   >
    </rect>
    <rect id="LxRectangle66" x="230" y="260" width="40" height="90"   style="fill:none;stroke:rgb(255,255,255); stroke-width:1.0;"   >
    </rect>
    <rect id="LxRectangle67" x="390" y="240" width="40" height="90"   style="fill:none;stroke:rgb(255,255,255); stroke-width:1.0;"   >
    </rect>
    <rect id="LxRectangle68" x="150" y="320" width="40" height="90"   style="fill:none;stroke:rgb(255,255,255); stroke-width:1.0;"   >
    </rect>
    <rect id="LxRectangle69" x="460" y="210" width="40" height="90"   style="fill:none;stroke:rgb(255,255,255); stroke-width:1.0;"   >
    </rect>
    <rect id="LxRectangle70" x="130" y="290" width="40" height="90"   style="fill:none;stroke:rgb(255,255,255); stroke-width:1.0;"   >
    </rect>
    <rect id="LxRectangle71" x="570" y="350" width="40" height="90"   style="fill:none;stroke:rgb(255,255,255); stroke-width:1.0;"   >
    </rect>
    <rect id="LxRectangle72" x="450" y="440" width="40" height="90"   style="fill:none;stroke:rgb(255,255,255); stroke-width:1.0;"   >
    </rect>
    <rect id="LxRectangle73" x="650" y="120" width="40" height="90"   style="fill:none;stroke:rgb(255,255,255); stroke-width:1.0;"   >
    </rect>
    <rect id="LxRectangle74" x="530" y="210" width="40" height="90"   style="fill:none;stroke:rgb(255,255,255); stroke-width:1.0;"   >
    </rect>
    <rect id="LxRectangle75" x="450" y="310" width="40" height="90"   style="fill:none;stroke:rgb(255,255,255); stroke-width:1.0;"   >
    </rect>
    <rect id="LxRectangle76" x="330" y="400" width="40" height="90"   style="fill:none;stroke:rgb(255,255,255); stroke-width:1.0;"   >
    </rect>
    <path id="LxLine15"  style="fill:none;stroke:rgb(255,255,255); stroke-width:1.0;" d="M230,110,l110,70," >
    </path>
    <path id="LxLine16"  style="fill:none;stroke:rgb(255,255,255); stroke-width:1.0;" d="M390,140,l110,70," >
    </path>
    <path id="LxLine17"  style="fill:none;stroke:rgb(255,255,255); stroke-width:1.0;" d="M190,150,l110,70," >
    </path>
    <rect id="LxRectangle77" x="190" y="380" width="60" height="70"   style="fill:none;stroke:rgb(255,255,255); stroke-width:1.0;"   >
    </rect>
    <rect id="LxRectangle78" x="410" y="190" width="60" height="70"   style="fill:none;stroke:rgb(255,255,255); stroke-width:1.0;"   >
    </rect>
    <rect id="LxRectangle79" x="170" y="230" width="40" height="90"   style="fill:none;stroke:rgb(255,255,255); stroke-width:1.0;"   >
    </rect>
    <rect id="LxRectangle80" x="330" y="430" width="40" height="90"   style="fill:none;stroke:rgb(255,255,255); stroke-width:1.0;"   >
    </rect>
    <rect id="LxRectangle81" x="350" y="300" width="40" height="90"   style="fill:none;stroke:rgb(255,255,255); stroke-width:1.0;"   >
    </rect>
    <rect id="LxRectangle82" x="510" y="280" width="40" height="90"   style="fill:none;stroke:rgb(255,255,255); stroke-width:1.0;"   >
    </rect>
    <rect id="LxRectangle83" x="270" y="360" width="40" height="90"   style="fill:none;stroke:rgb(255,255,255); stroke-width:1.0;"   >
    </rect>
    <rect id="LxRectangle84" x="580" y="250" width="40" height="90"   style="fill:none;stroke:rgb(255,255,255); stroke-width:1.0;"   >
    </rect>
    <rect id="LxRectangle85" x="250" y="330" width="40" height="90"   style="fill:none;stroke:rgb(255,255,255); stroke-width:1.0;"   >
    </rect>
    <rect id="LxRectangle86" x="690" y="390" width="40" height="90"   style="fill:none;stroke:rgb(255,255,255); stroke-width:1.0;"   >
    </rect>
    <rect id="LxRectangle87" x="570" y="480" width="40" height="90"   style="fill:none;stroke:rgb(255,255,255); stroke-width:1.0;"   >
    </rect>
    <rect id="LxRectangle88" x="770" y="160" width="40" height="90"   style="fill:none;stroke:rgb(255,255,255); stroke-width:1.0;"   >
    </rect>
    <rect id="LxRectangle89" x="650" y="250" width="40" height="90"   style="fill:none;stroke:rgb(255,255,255); stroke-width:1.0;"   >
    </rect>
    <rect id="LxRectangle90" x="570" y="350" width="40" height="90"   style="fill:none;stroke:rgb(255,255,255); stroke-width:1.0;"   >
    </rect>
    <rect id="LxRectangle91" x="450" y="440" width="40" height="90"   style="fill:none;stroke:rgb(255,255,255); stroke-width:1.0;"   >
    </rect>
    <path id="LxLine18"  style="fill:none;stroke:rgb(255,255,255); stroke-width:1.0;" d="M280,-20,l110,70," >
    </path>
    <path id="LxLine19"  style="fill:none;stroke:rgb(255,255,255); stroke-width:1.0;" d="M440,10,l110,70," >
    </path>
    <path id="LxLine20"  style="fill:none;stroke:rgb(255,255,255); stroke-width:1.0;" d="M240,20,l110,70," >
    </path>
    <rect id="LxRectangle92" x="240" y="250" width="60" height="70"   style="fill:none;stroke:rgb(255,255,255); stroke-width:1.0;"   >
    </rect>
    <rect id="LxRectangle93" x="460" y="60" width="60" height="70"   style="fill:none;stroke:rgb(255,255,255); stroke-width:1.0;"   >
    </rect>
    <rect id="LxRectangle94" x="220" y="100" width="40" height="90"   style="fill:none;stroke:rgb(255,255,255); stroke-width:1.0;"   >
    </rect>
    <rect id="LxRectangle95" x="380" y="300" width="40" height="90"   style="fill:none;stroke:rgb(255,255,255); stroke-width:1.0;"   >
    </rect>
    <rect id="LxRectangle96" x="400" y="170" width="40" height="90"   style="fill:none;stroke:rgb(255,255,255); stroke-width:1.0;"   >
    </rect>
    <rect id="LxRectangle97" x="560" y="150" width="40" height="90"   style="fill:none;stroke:rgb(255,255,255); stroke-width:1.0;"   >
    </rect>
    <rect id="LxRectangle98" x="320" y="230" width="40" height="90"   style="fill:none;stroke:rgb(255,255,255); stroke-width:1.0;"   >
    </rect>
    <rect id="LxRectangle99" x="630" y="120" width="40" height="90"   style="fill:none;stroke:rgb(255,255,255); stroke-width:1.0;"   >
    </rect>
    <rect id="LxRectangle100" x="300" y="200" width="40" height="90"   style="fill:none;stroke:rgb(255,255,255); stroke-width:1.0;"   >
    </rect>
    <rect id="LxRectangle101" x="740" y="260" width="40" height="90"   style="fill:none;stroke:rgb(255,255,255); stroke-width:1.0;"   >
    </rect>
    <rect id="LxRectangle102" x="620" y="350" width="40" height="90"   style="fill:none;stroke:rgb(255,255,255); stroke-width:1.0;"   >
    </rect>
    <rect id="LxRectangle103" x="820" y="30" width="40" height="90"   style="fill:none;stroke:rgb(255,255,255); stroke-width:1.0;"   >
    </rect>
    <rect id="LxRectangle104" x="700" y="120" width="40" height="90"   style="fill:none;stroke:rgb(255,255,255); stroke-width:1.0;"   >
    </rect>
    <rect id="LxRectangle105" x="620" y="220" width="40" height="90"   style="fill:none;stroke:rgb(255,255,255); stroke-width:1.0;"   >
    </rect>
    <rect id="LxRectangle106" x="500" y="310" width="40" height="90"   style="fill:none;stroke:rgb(255,255,255); stroke-width:1.0;"   >
    </rect>
    <path id="LxLine21"  style="fill:none;stroke:rgb(255,255,255); stroke-width:1.0;" d="M110,10,l110,70," >
    </path>
    <path id="LxLine22"  style="fill:none;stroke:rgb(255,255,255); stroke-width:1.0;" d="M270,40,l110,70," >
    </path>
    <path id="LxLine23"  style="fill:none;stroke:rgb(255,255,255); stroke-width:1.0;" d="M70,50,l110,70," >
    </path>
    <rect id="LxRectangle107" x="70" y="280" width="60" height="70"   style="fill:none;stroke:rgb(255,255,255); stroke-width:1.0;"   >
    </rect>
    <rect id="LxRectangle108" x="290" y="90" width="60" height="70"   style="fill:none;stroke:rgb(255,255,255); stroke-width:1.0;"   >
    </rect>
    <rect id="LxRectangle109" x="50" y="130" width="40" height="90"   style="fill:none;stroke:rgb(255,255,255); stroke-width:1.0;"   >
    </rect>
    <rect id="LxRectangle110" x="210" y="330" width="40" height="90"   style="fill:none;stroke:rgb(255,255,255); stroke-width:1.0;"   >
    </rect>
    <rect id="LxRectangle111" x="230" y="200" width="40" height="90"   style="fill:none;stroke:rgb(255,255,255); stroke-width:1.0;"   >
    </rect>
    <rect id="LxRectangle112" x="390" y="180" width="40" height="90"   style="fill:none;stroke:rgb(255,255,255); stroke-width:1.0;"   >
    </rect>
    <rect id="LxRectangle113" x="150" y="260" width="40" height="90"   style="fill:none;stroke:rgb(255,255,255); stroke-width:1.0;"   >
    </rect>
    <rect id="LxRectangle114" x="460" y="150" width="40" height="90"   style="fill:none;stroke:rgb(255,255,255); stroke-width:1.0;"   >
    </rect>
    <rect id="LxRectangle115" x="130" y="230" width="40" height="90"   style="fill:none;stroke:rgb(255,255,255); stroke-width:1.0;"   >
    </rect>
    <rect id="LxRectangle116" x="570" y="290" width="40" height="90"   style="fill:none;stroke:rgb(255,255,255); stroke-width:1.0;"   >
    </rect>
    <rect id="LxRectangle117" x="450" y="380" width="40" height="90"   style="fill:none;stroke:rgb(255,255,255); stroke-width:1.0;"   >
    </rect>
    <rect id="LxRectangle118" x="650" y="60" width="40" height="90"   style="fill:none;stroke:rgb(255,255,255); stroke-width:1.0;"   >
    </rect>
    <rect id="LxRectangle119" x="530" y="150" width="40" height="90"   style="fill:none;stroke:rgb(255,255,255); stroke-width:1.0;"   >
    </rect>
    <rect id="LxRectangle120" x="450" y="250" width="40" height="90"   style="fill:none;stroke:rgb(255,255,255); stroke-width:1.0;"   >
    </rect>
    <rect id="LxRectangle121" x="330" y="340" width="40" height="90"   style="fill:none;stroke:rgb(255,255,255); stroke-width:1.0;"   >
    </rect>
</svg>