<?xml version = "1.0" standalone = "no"?>
<!DOCTYPE svg PUBLIC "-//W3C//DTD SVG 20000802//EN" "http://www.w3.org/TR/2000/CR-SVG-20000802/DTD/svg-20000802.dtd" >
<svg width="1024.0px" height="768.0px" >
<rect width="100%" height="100%" color="#000000" />
<path id="LxLine" style="fill:none;opacity:1.0;stroke:rgb(255,255,255); stroke-width:1.0;" d="M 110.0 70.0 L 220.0 140.0 " />
<path id="LxLine" style="fill:none;opacity:1.0;stroke:rgb(255,255,255); stroke-width:1.0;" d="M 270.0 100.0 L 380.0 170.0 " />
<path id="LxLine" style="fill:none;opacity:1.0;stroke:rgb(255,255,255); stroke-width:1.0;" d="M 70.0 110.0 L 180.0 180.0 " />
<rect id="LxRectangle" x="65" y="335" width="69" height="79" style="fill:none;stroke:rgb(255,255,255); stroke-width:1.0" />
<rect id="LxRectangle" x="285" y="145" width="69" height="79" style="fill:none;stroke:rgb(255,255,255); stroke-width:1.0" />
<rect id="LxRectangle" x="45" y="185" width="49" height="99" style="fill:none;stroke:rgb(255,255,255); stroke-width:1.0" />
<rect id="LxRectangle" x="205" y="385" width="49" height="99" style="fill:none;stroke:rgb(255,255,255); stroke-width:1.0" />
<rect id="LxRectangle" x="225" y="255" width="49" height="99" style="fill:none;stroke:rgb(255,255,255); stroke-width:1.0" />
<rect id="LxRectangle" x="385" y="235" width="49" height="99" style="fill:none;stroke:rgb(255,255,255); stroke-width:1.0" />
<rect id="LxRectangle" x="145" y="315" width="49" height="99" style="fill:none;stroke:rgb(255,255,255); stroke-width:1.0" />
<rect id="LxRectangle" x="455" y="205" width="49" height="99" style="fill:none;stroke:rgb(255,255,255); stroke-width:1.0" />
<rect id="LxRectangle" x="125" y="285" width="49" height="99" style="fill:none;stroke:rgb(255,255,255); stroke-width:1.0" />
<rect id="LxRectangle" x="445" y="305" width="49" height="99" style="fill:none;stroke:rgb(255,255,255); stroke-width:1.0" />
<rect id="LxRectangle" x="325" y="395" width="49" height="99" style="fill:none;stroke:rgb(255,255,255); stroke-width:1.0" />
<rect id="LxRectangle" x="565" y="345" width="49" height="99" style="fill:none;stroke:rgb(255,255,255); stroke-width:1.0" />
<rect id="LxRectangle" x="445" y="435" width="49" height="99" style="fill:none;stroke:rgb(255,255,255); stroke-width:1.0" />
<rect id="LxRectangle" x="645" y="115" width="49" height="99" style="fill:none;stroke:rgb(255,255,255); stroke-width:1.0" />
<rect id="LxRectangle" x="525" y="205" width="49" height="99" style="fill:none;stroke:rgb(255,255,255); stroke-width:1.0" />
<rect id="LxRectangle" x="445" y="305" width="49" height="99" style="fill:none;stroke:rgb(255,255,255); stroke-width:1.0" />
<rect id="LxRectangle" x="325" y="395" width="49" height="99" style="fill:none;stroke:rgb(255,255,255); stroke-width:1.0" />
<path id="LxLine" style="fill:none;opacity:1.0;stroke:rgb(255,255,255); stroke-width:1.0;" d="M 230.0 90.0 L 340.0 160.0 " />
<path id="LxLine" style="fill:none;opacity:1.0;stroke:rgb(255,255,255); stroke-width:1.0;" d="M 390.0 120.0 L 500.0 190.0 " />
<path id="LxLine" style="fill:none;opacity:1.0;stroke:rgb(255,255,255); stroke-width:1.0;" d="M 190.0 130.0 L 300.0 200.0 " />
<rect id="LxRectangle" x="185" y="355" width="69" height="79" style="fill:none;stroke:rgb(255,255,255); stroke-width:1.0" />
<rect id="LxRectangle" x="405" y="165" width="69" height="79" style="fill:none;stroke:rgb(255,255,255); stroke-width:1.0" />
<rect id="LxRectangle" x="165" y="205" width="49" height="99" style="fill:none;stroke:rgb(255,255,255); stroke-width:1.0" />
<rect id="LxRectangle" x="325" y="405" width="49" height="99" style="fill:none;stroke:rgb(255,255,255); stroke-width:1.0" />
<rect id="LxRectangle" x="345" y="275" width="49" height="99" style="fill:none;stroke:rgb(255,255,255); stroke-width:1.0" />
<rect id="LxRectangle" x="505" y="255" width="49" height="99" style="fill:none;stroke:rgb(255,255,255); stroke-width:1.0" />
<rect id="LxRectangle" x="265" y="335" width="49" height="99" style="fill:none;stroke:rgb(255,255,255); stroke-width:1.0" />
<rect id="LxRectangle" x="575" y="225" width="49" height="99" style="fill:none;stroke:rgb(255,255,255); stroke-width:1.0" />
<rect id="LxRectangle" x="245" y="305" width="49" height="99" style="fill:none;stroke:rgb(255,255,255); stroke-width:1.0" />
<rect id="LxRectangle" x="685" y="365" width="49" height="99" style="fill:none;stroke:rgb(255,255,255); stroke-width:1.0" />
<rect id="LxRectangle" x="565" y="455" width="49" height="99" style="fill:none;stroke:rgb(255,255,255); stroke-width:1.0" />
<rect id="LxRectangle" x="765" y="135" width="49" height="99" style="fill:none;stroke:rgb(255,255,255); stroke-width:1.0" />
<rect id="LxRectangle" x="645" y="225" width="49" height="99" style="fill:none;stroke:rgb(255,255,255); stroke-width:1.0" />
<rect id="LxRectangle" x="565" y="325" width="49" height="99" style="fill:none;stroke:rgb(255,255,255); stroke-width:1.0" />
<rect id="LxRectangle" x="445" y="415" width="49" height="99" style="fill:none;stroke:rgb(255,255,255); stroke-width:1.0" />
<path id="LxLine" style="fill:none;opacity:1.0;stroke:rgb(255,255,255); stroke-width:1.0;" d="M 190.0 40.0 L 300.0 110.0 " />
<path id="LxLine" style="fill:none;opacity:1.0;stroke:rgb(255,255,255); stroke-width:1.0;" d="M 350.0 70.0 L 460.0 140.0 " />
<path id="LxLine" style="fill:none;opacity:1.0;stroke:rgb(255,255,255); stroke-width:1.0;" d="M 150.0 80.0 L 260.0 150.0 " />
<rect id="LxRectangle" x="145" y="305" width="69" height="79" style="fill:none;stroke:rgb(255,255,255); stroke-width:1.0" />
<rect id="LxRectangle" x="365" y="115" width="69" height="79" style="fill:none;stroke:rgb(255,255,255); stroke-width:1.0" />
<rect id="LxRectangle" x="125" y="155" width="49" height="99" style="fill:none;stroke:rgb(255,255,255); stroke-width:1.0" />
<rect id="LxRectangle" x="285" y="355" width="49" height="99" style="fill:none;stroke:rgb(255,255,255); stroke-width:1.0" />
<rect id="LxRectangle" x="305" y="225" width="49" height="99" style="fill:none;stroke:rgb(255,255,255); stroke-width:1.0" />
<rect id="LxRectangle" x="465" y="205" width="49" height="99" style="fill:none;stroke:rgb(255,255,255); stroke-width:1.0" />
<rect id="LxRectangle" x="225" y="285" width="49" height="99" style="fill:none;stroke:rgb(255,255,255); stroke-width:1.0" />
<rect id="LxRectangle" x="535" y="175" width="49" height="99" style="fill:none;stroke:rgb(255,255,255); stroke-width:1.0" />
<rect id="LxRectangle" x="205" y="255" width="49" height="99" style="fill:none;stroke:rgb(255,255,255); stroke-width:1.0" />
<rect id="LxRectangle" x="645" y="315" width="49" height="99" style="fill:none;stroke:rgb(255,255,255); stroke-width:1.0" />
<rect id="LxRectangle" x="525" y="405" width="49" height="99" style="fill:none;stroke:rgb(255,255,255); stroke-width:1.0" />
<rect id="LxRectangle" x="725" y="85" width="49" height="99" style="fill:none;stroke:rgb(255,255,255); stroke-width:1.0" />
<rect id="LxRectangle" x="605" y="175" width="49" height="99" style="fill:none;stroke:rgb(255,255,255); stroke-width:1.0" />
<rect id="LxRectangle" x="525" y="275" width="49" height="99" style="fill:none;stroke:rgb(255,255,255); stroke-width:1.0" />
<rect id="LxRectangle" x="405" y="365" width="49" height="99" style="fill:none;stroke:rgb(255,255,255); stroke-width:1.0" />
<path id="LxLine" style="fill:none;opacity:1.0;stroke:rgb(255,255,255); stroke-width:1.0;" d="M 50.0 150.0 L 160.0 220.0 " />
<path id="LxLine" style="fill:none;opacity:1.0;stroke:rgb(255,255,255); stroke-width:1.0;" d="M 210.0 180.0 L 320.0 250.0 " />
<path id="LxLine" style="fill:none;opacity:1.0;stroke:rgb(255,255,255); stroke-width:1.0;" d="M 10.0 190.0 L 120.0 260.0 " />
<rect id="LxRectangle" x="5" y="415" width="69" height="79" style="fill:none;stroke:rgb(255,255,255); stroke-width:1.0" />
<rect id="LxRectangle" x="225" y="225" width="69" height="79" style="fill:none;stroke:rgb(255,255,255); stroke-width:1.0" />
<rect id="LxRectangle" x="-14" y="265" width="48" height="99" style="fill:none;stroke:rgb(255,255,255); stroke-width:1.0" />
<rect id="LxRectangle" x="145" y="465" width="49" height="99" style="fill:none;stroke:rgb(255,255,255); stroke-width:1.0" />
<rect id="LxRectangle" x="165" y="335" width="49" height="99" style="fill:none;stroke:rgb(255,255,255); stroke-width:1.0" />
<rect id="LxRectangle" x="325" y="315" width="49" height="99" style="fill:none;stroke:rgb(255,255,255); stroke-width:1.0" />
<rect id="LxRectangle" x="85" y="395" width="49" height="99" style="fill:none;stroke:rgb(255,255,255); stroke-width:1.0" />
<rect id="LxRectangle" x="395" y="285" width="49" height="99" style="fill:none;stroke:rgb(255,255,255); stroke-width:1.0" />
<rect id="LxRectangle" x="65" y="365" width="49" height="99" style="fill:none;stroke:rgb(255,255,255); stroke-width:1.0" />
<rect id="LxRectangle" x="505" y="425" width="49" height="99" style="fill:none;stroke:rgb(255,255,255); stroke-width:1.0" />
<rect id="LxRectangle" x="385" y="515" width="49" height="99" style="fill:none;stroke:rgb(255,255,255); stroke-width:1.0" />
<rect id="LxRectangle" x="585" y="195" width="49" height="99" style="fill:none;stroke:rgb(255,255,255); stroke-width:1.0" />
<rect id="LxRectangle" x="465" y="285" width="49" height="99" style="fill:none;stroke:rgb(255,255,255); stroke-width:1.0" />
<rect id="LxRectangle" x="385" y="385" width="49" height="99" style="fill:none;stroke:rgb(255,255,255); stroke-width:1.0" />
<rect id="LxRectangle" x="265" y="475" width="49" height="99" style="fill:none;stroke:rgb(255,255,255); stroke-width:1.0" />
<path id="LxLine" style="fill:none;opacity:1.0;stroke:rgb(255,255,255); stroke-width:1.0;" d="M 110.0 70.0 L 220.0 140.0 " />
<path id="LxLine" style="fill:none;opacity:1.0;stroke:rgb(255,255,255); stroke-width:1.0;" d="M 270.0 100.0 L 380.0 170.0 " />
<path id="LxLine" style="fill:none;opacity:1.0;stroke:rgb(255,255,255); stroke-width:1.0;" d="M 70.0 110.0 L 180.0 180.0 " />
<rect id="LxRectangle" x="65" y="335" width="69" height="79" style="fill:none;stroke:rgb(255,255,255); stroke-width:1.0" />
<rect id="LxRectangle" x="285" y="145" width="69" height="79" style="fill:none;stroke:rgb(255,255,255); stroke-width:1.0" />
<rect id="LxRectangle" x="45" y="185" width="49" height="99" style="fill:none;stroke:rgb(255,255,255); stroke-width:1.0" />
<rect id="LxRectangle" x="205" y="385" width="49" height="99" style="fill:none;stroke:rgb(255,255,255); stroke-width:1.0" />
<rect id="LxRectangle" x="225" y="255" width="49" height="99" style="fill:none;stroke:rgb(255,255,255); stroke-width:1.0" />
<rect id="LxRectangle" x="385" y="235" width="49" height="99" style="fill:none;stroke:rgb(255,255,255); stroke-width:1.0" />
<rect id="LxRectangle" x="145" y="315" width="49" height="99" style="fill:none;stroke:rgb(255,255,255); stroke-width:1.0" />
<rect id="LxRectangle" x="455" y="205" width="49" height="99" style="fill:none;stroke:rgb(255,255,255); stroke-width:1.0" />
<rect id="LxRectangle" x="125" y="285" width="49" height="99" style="fill:none;stroke:rgb(255,255,255); stroke-width:1.0" />
<rect id="LxRectangle" x="565" y="345" width="49" height="99" style="fill:none;stroke:rgb(255,255,255); stroke-width:1.0" />
<rect id="LxRectangle" x="445" y="435" width="49" height="99" style="fill:none;stroke:rgb(255,255,255); stroke-width:1.0" />
<rect id="LxRectangle" x="645" y="115" width="49" height="99" style="fill:none;stroke:rgb(255,255,255); stroke-width:1.0" />
<rect id="LxRectangle" x="525" y="205" width="49" height="99" style="fill:none;stroke:rgb(255,255,255); stroke-width:1.0" />
<rect id="LxRectangle" x="445" y="305" width="49" height="99" style="fill:none;stroke:rgb(255,255,255); stroke-width:1.0" />
<rect id="LxRectangle" x="325" y="395" width="49" height="99" style="fill:none;stroke:rgb(255,255,255); stroke-width:1.0" />
<path id="LxLine" style="fill:none;opacity:1.0;stroke:rgb(255,255,255); stroke-width:1.0;" d="M 230.0 110.0 L 340.0 180.0 " />
<path id="LxLine" style="fill:none;opacity:1.0;stroke:rgb(255,255,255); stroke-width:1.0;" d="M 390.0 140.0 L 500.0 210.0 " />
<path id="LxLine" style="fill:none;opacity:1.0;stroke:rgb(255,255,255); stroke-width:1.0;" d="M 190.0 150.0 L 300.0 220.0 " />
<rect id="LxRectangle" x="185" y="375" width="69" height="79" style="fill:none;stroke:rgb(255,255,255); stroke-width:1.0" />
<rect id="LxRectangle" x="405" y="185" width="69" height="79" style="fill:none;stroke:rgb(255,255,255); stroke-width:1.0" />
<rect id="LxRectangle" x="165" y="225" width="49" height="99" style="fill:none;stroke:rgb(255,255,255); stroke-width:1.0" />
<rect id="LxRectangle" x="325" y="425" width="49" height="99" style="fill:none;stroke:rgb(255,255,255); stroke-width:1.0" />
<rect id="LxRectangle" x="345" y="295" width="49" height="99" style="fill:none;stroke:rgb(255,255,255); stroke-width:1.0" />
<rect id="LxRectangle" x="505" y="275" width="49" height="99" style="fill:none;stroke:rgb(255,255,255); stroke-width:1.0" />
<rect id="LxRectangle" x="265" y="355" width="49" height="99" style="fill:none;stroke:rgb(255,255,255); stroke-width:1.0" />
<rect id="LxRectangle" x="575" y="245" width="49" height="99" style="fill:none;stroke:rgb(255,255,255); stroke-width:1.0" />
<rect id="LxRectangle" x="245" y="325" width="49" height="99" style="fill:none;stroke:rgb(255,255,255); stroke-width:1.0" />
<rect id="LxRectangle" x="685" y="385" width="49" height="99" style="fill:none;stroke:rgb(255,255,255); stroke-width:1.0" />
<rect id="LxRectangle" x="565" y="475" width="49" height="99" style="fill:none;stroke:rgb(255,255,255); stroke-width:1.0" />
<rect id="LxRectangle" x="765" y="155" width="49" height="99" style="fill:none;stroke:rgb(255,255,255); stroke-width:1.0" />
<rect id="LxRectangle" x="645" y="245" width="49" height="99" style="fill:none;stroke:rgb(255,255,255); stroke-width:1.0" />
<rect id="LxRectangle" x="565" y="345" width="49" height="99" style="fill:none;stroke:rgb(255,255,255); stroke-width:1.0" />
<rect id="LxRectangle" x="445" y="435" width="49" height="99" style="fill:none;stroke:rgb(255,255,255); stroke-width:1.0" />
<path id="LxLine" style="fill:none;opacity:1.0;stroke:rgb(255,255,255); stroke-width:1.0;" d="M 280.0 -20.0 L 390.0 50.0 " />
<path id="LxLine" style="fill:none;opacity:1.0;stroke:rgb(255,255,255); stroke-width:1.0;" d="M 440.0 10.0 L 550.0 80.0 " />
<path id="LxLine" style="fill:none;opacity:1.0;stroke:rgb(255,255,255); stroke-width:1.0;" d="M 240.0 20.0 L 350.0 90.0 " />
<rect id="LxRectangle" x="235" y="245" width="69" height="79" style="fill:none;stroke:rgb(255,255,255); stroke-width:1.0" />
<rect id="LxRectangle" x="455" y="55" width="69" height="79" style="fill:none;stroke:rgb(255,255,255); stroke-width:1.0" />
<rect id="LxRectangle" x="215" y="95" width="49" height="99" style="fill:none;stroke:rgb(255,255,255); stroke-width:1.0" />
<rect id="LxRectangle" x="375" y="295" width="49" height="99" style="fill:none;stroke:rgb(255,255,255); stroke-width:1.0" />
<rect id="LxRectangle" x="395" y="165" width="49" height="99" style="fill:none;stroke:rgb(255,255,255); stroke-width:1.0" />
<rect id="LxRectangle" x="555" y="145" width="49" height="99" style="fill:none;stroke:rgb(255,255,255); stroke-width:1.0" />
<rect id="LxRectangle" x="315" y="225" width="49" height="99" style="fill:none;stroke:rgb(255,255,255); stroke-width:1.0" />
<rect id="LxRectangle" x="625" y="115" width="49" height="99" style="fill:none;stroke:rgb(255,255,255); stroke-width:1.0" />
<rect id="LxRectangle" x="295" y="195" width="49" height="99" style="fill:none;stroke:rgb(255,255,255); stroke-width:1.0" />
<rect id="LxRectangle" x="735" y="255" width="49" height="99" style="fill:none;stroke:rgb(255,255,255); stroke-width:1.0" />
<rect id="LxRectangle" x="615" y="345" width="49" height="99" style="fill:none;stroke:rgb(255,255,255); stroke-width:1.0" />
<rect id="LxRectangle" x="815" y="25" width="49" height="99" style="fill:none;stroke:rgb(255,255,255); stroke-width:1.0" />
<rect id="LxRectangle" x="695" y="115" width="49" height="99" style="fill:none;stroke:rgb(255,255,255); stroke-width:1.0" />
<rect id="LxRectangle" x="615" y="215" width="49" height="99" style="fill:none;stroke:rgb(255,255,255); stroke-width:1.0" />
<rect id="LxRectangle" x="495" y="305" width="49" height="99" style="fill:none;stroke:rgb(255,255,255); stroke-width:1.0" />
<path id="LxLine" style="fill:none;opacity:1.0;stroke:rgb(255,255,255); stroke-width:1.0;" d="M 110.0 10.0 L 220.0 80.0 " />
<path id="LxLine" style="fill:none;opacity:1.0;stroke:rgb(255,255,255); stroke-width:1.0;" d="M 270.0 40.0 L 380.0 110.0 " />
<path id="LxLine" style="fill:none;opacity:1.0;stroke:rgb(255,255,255); stroke-width:1.0;" d="M 70.0 50.0 L 180.0 120.0 " />
<rect id="LxRectangle" x="65" y="275" width="69" height="79" style="fill:none;stroke:rgb(255,255,255); stroke-width:1.0" />
<rect id="LxRectangle" x="285" y="85" width="69" height="79" style="fill:none;stroke:rgb(255,255,255); stroke-width:1.0" />
<rect id="LxRectangle" x="45" y="125" width="49" height="99" style="fill:none;stroke:rgb(255,255,255); stroke-width:1.0" />
<rect id="LxRectangle" x="205" y="325" width="49" height="99" style="fill:none;stroke:rgb(255,255,255); stroke-width:1.0" />
<rect id="LxRectangle" x="225" y="195" width="49" height="99" style="fill:none;stroke:rgb(255,255,255); stroke-width:1.0" />
<rect id="LxRectangle" x="385" y="175" width="49" height="99" style="fill:none;stroke:rgb(255,255,255); stroke-width:1.0" />
<rect id="LxRectangle" x="145" y="255" width="49" height="99" style="fill:none;stroke:rgb(255,255,255); stroke-width:1.0" />
<rect id="LxRectangle" x="455" y="145" width="49" height="99" style="fill:none;stroke:rgb(255,255,255); stroke-width:1.0" />
<rect id="LxRectangle" x="125" y="225" width="49" height="99" style="fill:none;stroke:rgb(255,255,255); stroke-width:1.0" />
<rect id="LxRectangle" x="565" y="285" width="49" height="99" style="fill:none;stroke:rgb(255,255,255); stroke-width:1.0" />
<rect id="LxRectangle" x="445" y="375" width="49" height="99" style="fill:none;stroke:rgb(255,255,255); stroke-width:1.0" />
<rect id="LxRectangle" x="645" y="55" width="49" height="99" style="fill:none;stroke:rgb(255,255,255); stroke-width:1.0" />
<rect id="LxRectangle" x="525" y="145" width="49" height="99" style="fill:none;stroke:rgb(255,255,255); stroke-width:1.0" />
<rect id="LxRectangle" x="445" y="245" width="49" height="99" style="fill:none;stroke:rgb(255,255,255); stroke-width:1.0" />
<rect id="LxRectangle" x="325" y="335" width="49" height="99" style="fill:none;stroke:rgb(255,255,255); stroke-width:1.0" />
</svg>