<?xml version = "1.0" standalone = "no"?>
<!DOCTYPE svg PUBLIC "-//W3C//DTD SVG 20000802//EN" "http://www.w3.org/TR/2000/CR-SVG-20000802/DTD/svg-20000802.dtd" >
<svg width = "610.0px" height="280.328125px">
    <defs>
    </defs>
    <image id="LxAbstractImage" x="50" y="130" width="60" height="20"  style="fill:none;stroke:rgb(0,0,0); stroke-width:1.0;"     xlink:href="null" >
    </image>
    <path id="LxLine"  style="fill:rgb(255,255,102);stroke:rgb(255,255,102); stroke-width:2.0;" d="M80,20,l0,260,M80,20,l-4,6,l1,0,l3,-4,l3,4,l1,0,zM80,280,l4,-6,l-1,0,l-3,4,l-3,-4,l-1,0,z" >
    </path>
    <path id="LxLine1"  style="fill:rgb(255,255,102);stroke:rgb(255,255,102); stroke-width:2.0;" d="M80,210,l330,-60,M80,210,l6.619,2.862,l-0.179,-0.984,l-4.472,-2.236,l3.399,-3.667,l-0.179,-0.984,zM410,150,l-6.619,-2.862,l0.179,0.984,l4.472,2.236,l-3.399,3.667,l0.179,0.984,z" >
    </path>
    <path id="LxLine2"  style="fill:rgb(255,255,102);stroke:rgb(255,255,102); stroke-width:2.0;" d="M610,210,l0,-180,M610,210,l4,-6,l-1,0,l-3,4,l-3,-4,l-1,0,zM610,30,l-4,6,l1,0,l3,-4,l3,4,l1,0,z" >
    </path>
    <path id="LxLine3"  style="fill:rgb(102,153,255);stroke:rgb(102,153,255); stroke-width:2.0;" d="M310,210,l0,70," >
    </path>
    <image id="LxAbstractImage1" x="300" y="230" width="20" height="20"  style="fill:none;stroke:rgb(0,0,0); stroke-width:1.0;"     xlink:href="null" >
    </image>
    <text id="LxAbstractText"  style="fill:rgb(255,255,255);font-family:'Arial';font-style:normal;font-weight:normal;font-size:12;" transform="translate(330,228.713)"  >F1    </text>
    <text id="LxAbstractText1"  style="fill:rgb(255,255,255);font-family:'Arial';font-style:normal;font-weight:normal;font-size:12;" transform="translate(337.133,243.275)"  >0    </text>
    <text id="LxAbstractText2"  style="fill:rgb(255,255,255);font-family:'Arial';font-style:normal;font-weight:normal;font-size:12;" transform="translate(336.133,280.275)"  >50.77    </text>
    <image id="LxAbstractImage2" x="457" y="203" width="120" height="20"  style="fill:none;stroke:rgb(0,0,0); stroke-width:1.0;"     xlink:href="null" >
    </image>
</svg>