<?xml version="1.0" encoding="UTF-8"?>
<svg width="1024" height="300" onload="refresh(evt)"><script xlink:href="refresh.js" type="text/ecmascript"/><script xlink:href="edit.js" type="text/ecmascript"/><rect width="100%" height="100%" color="#000000"/><path d="M 20.0 20.0 L 970.0 250.0 " id="LxLine" style="fill:none;opacity:1.0;stroke:rgb(255,255,255); stroke-width:1.0"/><svg start="12:09:2002:00:09:00" stroke-dasharray="none" shape-rendering="auto" font-family="&apos;sansserif&apos;" width="309" text-rendering="auto" end="12:10:2002:00:10:00" fill-opacity="1" gdefid="681" object="graph" color-rendering="auto" color-interpolation="auto" loadfactor="false" font-size="12" format="svg" fill="black" model="0" stroke="black" image-rendering="auto" stroke-miterlimit="10" db="yukon" stroke-linecap="square" stroke-linejoin="miter" x="55" font-style="normal" height="209" y="65" stroke-width="1" stroke-dashoffset="0" font-weight="normal" stroke-opacity="1"><!--Generated by the Batik Graphics2D SVG Generator--><defs id="genericDefs"/><g><defs id="defs1"><clipPath clipPathUnits="userSpaceOnUse" id="clipPath1"><path d="M0 0 L309 0 L309 209 L0 209 L0 0 Z"/></clipPath><clipPath clipPathUnits="userSpaceOnUse" id="clipPath2"><path d="M-116.237060546875 -189.421875 L192.762939453125 -189.421875 L192.762939453125 19.578125 L-116.237060546875 19.578125 L-116.237060546875 -189.421875 Z"/></clipPath><clipPath clipPathUnits="userSpaceOnUse" id="clipPath3"><path d="M151.3791046142578 99.19160461425781 L151.3791046142578 408.19158935546875 L-57.62089538574219 408.19158935546875 L-57.62089538574219 99.19160461425781 L151.3791046142578 99.19160461425781 Z"/></clipPath><clipPath clipPathUnits="userSpaceOnUse" id="clipPath4"><path d="M53.7783203125 47.771873474121094 L53.7783203125 144.75 L301 144.75 L301 47.771873474121094 Z"/></clipPath></defs><g fill="white" text-rendering="optimizeLegibility" shape-rendering="geometricPrecision" stroke="white"><rect x="0" y="0" clip-path="url(#clipPath1)" width="309" height="209" stroke="none"/></g><g text-rendering="optimizeLegibility" shape-rendering="geometricPrecision" font-family="sans-serif" font-weight="bold"><text xml:space="preserve" x="87.134765625" y="16.592578887939453" clip-path="url(#clipPath1)" stroke="none">BE Rockridge 8560 Gas</text><text xml:space="preserve" x="14.7626953125" y="38.478515625" clip-path="url(#clipPath1)" stroke="none">Mon December 09, 2002 - Tue December 10, 2002</text><rect x="0" font-size="10" y="0" transform="translate(116.237060546875,189.42187499999997)" clip-path="url(#clipPath2)" fill="white" width="76.52587890625" height="16.578125" stroke="none"/><rect x="0" font-size="10" y="0" transform="translate(116.237060546875,189.42187499999997)" clip-path="url(#clipPath2)" fill="none" width="76.52587890625" height="16.578125" stroke="gray"/><rect x="2" font-size="10" y="5.6513671875" transform="translate(116.237060546875,189.42187499999997)" clip-path="url(#clipPath2)" fill="red" width="8.2890625" height="8.2890625" stroke="none"/><text x="14" font-size="10" y="13.9404296875" transform="translate(116.237060546875,189.42187499999997)" clip-path="url(#clipPath2)" stroke="none" xml:space="preserve">8560 SF6 %</text></g><g font-size="10" fill="white" text-rendering="optimizeLegibility" font-family="sans-serif" shape-rendering="geometricPrecision" stroke="white"><rect x="53.7783203125" y="47.771875" clip-path="url(#clipPath1)" width="247.2216796875" height="96.97812499999998" stroke="none"/><rect x="53.7783203125" y="47.771875" clip-path="url(#clipPath1)" fill="none" width="247.2216796875" height="96.97812499999998" stroke="gray"/><text x="149.71533203125" font-size="12" y="176.392578125" clip-path="url(#clipPath1)" fill="black" stroke="none" xml:space="preserve">Date/Time</text><text x="148.76112365722656" y="159.328125" clip-path="url(#clipPath1)" fill="black" stroke="none" xml:space="preserve">9-Dec, 12:00</text><line clip-path="url(#clipPath1)" fill="none" x1="177.38905334472656" x2="177.38905334472656" y1="144.74999999999997" y2="146.74999999999997" stroke="gray"/><text x="269.5911865234375" y="159.328125" clip-path="url(#clipPath1)" fill="black" stroke="none" xml:space="preserve">10-Dec, 00:00</text><line clip-path="url(#clipPath1)" fill="none" x1="300.9998779296875" x2="300.9998779296875" y1="144.74999999999997" y2="146.74999999999997" stroke="gray"/><text x="26.09375" font-size="12" y="125.28535461425781" transform="matrix(0,-1,1,0,-99.19160461425781,151.3791046142578)" clip-path="url(#clipPath3)" fill="black" stroke="none" xml:space="preserve">Reading_L</text></g><g text-rendering="optimizeLegibility" font-size="10" shape-rendering="geometricPrecision" font-family="sans-serif"><text xml:space="preserve" x="38.6552734375" y="149.77685546875" clip-path="url(#clipPath1)" stroke="none">80</text><line clip-path="url(#clipPath1)" fill="none" x1="51.7783203125" x2="53.7783203125" y1="144.75" y2="144.75" stroke="gray"/><text xml:space="preserve" x="38.6552734375" y="117.45081329345703" clip-path="url(#clipPath1)" stroke="none">90</text><line clip-path="url(#clipPath1)" fill="none" x1="51.7783203125" x2="53.7783203125" y1="112.42395782470703" y2="112.42395782470703" stroke="gray"/><text xml:space="preserve" x="33.09375" y="85.12477111816406" clip-path="url(#clipPath1)" stroke="none">100</text><line clip-path="url(#clipPath1)" fill="none" x1="51.7783203125" x2="53.7783203125" y1="80.09791564941406" y2="80.09791564941406" stroke="gray"/><text xml:space="preserve" x="33.09375" y="52.798728942871094" clip-path="url(#clipPath1)" stroke="none">110</text><line clip-path="url(#clipPath1)" fill="none" x1="51.7783203125" x2="53.7783203125" y1="47.771873474121094" y2="47.771873474121094" stroke="gray"/></g><g stroke-linecap="butt" font-size="10" fill="silver" text-rendering="optimizeLegibility" stroke-linejoin="bevel" font-family="sans-serif" shape-rendering="geometricPrecision" stroke-dasharray="2,2" stroke="silver" stroke-width="0.5" stroke-miterlimit="0"><line clip-path="url(#clipPath4)" fill="none" x1="177.38905142449272" x2="177.38905142449272" y1="47.771875" y2="144.74999999999997"/><line clip-path="url(#clipPath4)" fill="none" x1="300.9998912682428" x2="300.9998912682428" y1="47.771875" y2="144.74999999999997"/><line clip-path="url(#clipPath4)" fill="none" x1="53.7783203125" x2="301" y1="144.74999999999997" y2="144.74999999999997"/><line clip-path="url(#clipPath4)" fill="none" x1="53.7783203125" x2="301" y1="112.42395833333332" y2="112.42395833333332"/><line clip-path="url(#clipPath4)" fill="none" x1="53.7783203125" x2="301" y1="80.09791666666666" y2="80.09791666666666"/><line clip-path="url(#clipPath4)" fill="none" x1="53.7783203125" x2="301" y1="47.771874999999994" y2="47.771874999999994"/></g><g font-size="10" fill="red" text-rendering="optimizeLegibility" font-family="sans-serif" shape-rendering="geometricPrecision" stroke="red"><line clip-path="url(#clipPath4)" fill="none" x1="53.78107294277615" x2="56.35343741082085" y1="67.29680712620417" y2="67.29680712620417"/><line clip-path="url(#clipPath4)" fill="none" x1="56.35343741082085" x2="58.9315246029324" y1="67.29680712620417" y2="67.29680712620417"/><line clip-path="url(#clipPath4)" fill="none" x1="58.9315246029324" x2="61.5038890709771" y1="67.29680712620417" y2="67.29680712620417"/><line clip-path="url(#clipPath4)" fill="none" x1="61.5038890709771" x2="64.07911490105523" y1="67.29680712620417" y2="67.29680712620417"/><line clip-path="url(#clipPath4)" fill="none" x1="64.07911490105523" x2="66.65434073113336" y1="67.29680712620417" y2="67.29680712620417"/><line clip-path="url(#clipPath4)" fill="none" x1="66.65434073113336" x2="69.22956656121148" y1="67.29680712620417" y2="67.29680712620417"/><line clip-path="url(#clipPath4)" fill="none" x1="69.22956656121148" x2="71.80479239128961" y1="67.29680712620417" y2="67.29680712620417"/><line clip-path="url(#clipPath4)" fill="none" x1="71.80479239128961" x2="74.38287958340115" y1="67.29680712620417" y2="67.29680712620417"/><line clip-path="url(#clipPath4)" fill="none" x1="74.38287958340115" x2="76.95524405144586" y1="67.29680712620417" y2="67.29680712620417"/><line clip-path="url(#clipPath4)" fill="none" x1="76.95524405144586" x2="79.53046988152398" y1="67.29680712620417" y2="67.29680712620417"/><line clip-path="url(#clipPath4)" fill="none" x1="79.53046988152398" x2="82.10569571160211" y1="67.29680712620417" y2="67.29680712620417"/><line clip-path="url(#clipPath4)" fill="none" x1="82.10569571160211" x2="84.68092154168023" y1="67.29680712620417" y2="67.29680712620417"/><line clip-path="url(#clipPath4)" fill="none" x1="84.68092154168023" x2="87.25614737175835" y1="67.29680712620417" y2="67.29680712620417"/><line clip-path="url(#clipPath4)" fill="none" x1="87.25614737175835" x2="89.83137320183648" y1="67.29680712620417" y2="67.29680712620417"/><line clip-path="url(#clipPath4)" fill="none" x1="89.83137320183648" x2="92.4065990319146" y1="67.29680712620417" y2="67.29680712620417"/><line clip-path="url(#clipPath4)" fill="none" x1="92.4065990319146" x2="94.98182486199272" y1="67.29680712620417" y2="67.29680712620417"/><line clip-path="url(#clipPath4)" fill="none" x1="94.98182486199272" x2="97.55705069207086" y1="67.29680712620417" y2="67.29680712620417"/><line clip-path="url(#clipPath4)" fill="none" x1="97.55705069207086" x2="100.13227652214897" y1="67.29680712620417" y2="67.29680712620417"/><line clip-path="url(#clipPath4)" fill="none" x1="100.13227652214897" x2="102.7075023522271" y1="67.29680712620417" y2="67.29680712620417"/><line clip-path="url(#clipPath4)" fill="none" x1="102.7075023522271" x2="105.28272818230523" y1="67.29680712620417" y2="67.29680712620417"/><line clip-path="url(#clipPath4)" fill="none" x1="105.28272818230523" x2="107.85795401238335" y1="67.29680712620417" y2="67.29680712620417"/><line clip-path="url(#clipPath4)" fill="none" x1="107.85795401238335" x2="110.43317984246147" y1="67.29680712620417" y2="67.29680712620417"/><line clip-path="url(#clipPath4)" fill="none" x1="110.43317984246147" x2="113.00840567253961" y1="67.29680712620417" y2="67.29680712620417"/><line clip-path="url(#clipPath4)" fill="none" x1="113.00840567253961" x2="115.58363150261772" y1="67.29680712620417" y2="67.29680712620417"/><line clip-path="url(#clipPath4)" fill="none" x1="115.58363150261772" x2="118.15885733269585" y1="67.29680712620417" y2="67.29680712620417"/><line clip-path="url(#clipPath4)" fill="none" x1="118.15885733269585" x2="120.73408316277398" y1="67.29680712620417" y2="67.29680712620417"/><line clip-path="url(#clipPath4)" fill="none" x1="120.73408316277398" x2="123.30930899285211" y1="67.29680712620417" y2="67.29680712620417"/><line clip-path="url(#clipPath4)" fill="none" x1="123.30930899285211" x2="125.88453482293022" y1="67.29680712620417" y2="67.29680712620417"/><line clip-path="url(#clipPath4)" fill="none" x1="125.88453482293022" x2="128.45976065300835" y1="67.29680712620417" y2="67.29680712620417"/><line clip-path="url(#clipPath4)" fill="none" x1="128.45976065300835" x2="131.03498648308647" y1="67.29680712620417" y2="67.29680712620417"/><line clip-path="url(#clipPath4)" fill="none" x1="131.03498648308647" x2="133.6102123131646" y1="67.29680712620417" y2="67.29680712620417"/><line clip-path="url(#clipPath4)" fill="none" x1="133.6102123131646" x2="136.18543814324272" y1="67.29680712620417" y2="67.29680712620417"/><line clip-path="url(#clipPath4)" fill="none" x1="136.18543814324272" x2="138.76066397332085" y1="67.29680712620417" y2="67.29680712620417"/><line clip-path="url(#clipPath4)" fill="none" x1="138.76066397332085" x2="141.33588980339897" y1="67.29680712620417" y2="67.29680712620417"/><line clip-path="url(#clipPath4)" fill="none" x1="141.33588980339897" x2="143.9111156334771" y1="67.29680712620417" y2="67.29680712620417"/><line clip-path="url(#clipPath4)" fill="none" x1="143.9111156334771" x2="146.48634146355522" y1="67.29680712620417" y2="67.29680712620417"/><line clip-path="url(#clipPath4)" fill="none" x1="146.48634146355522" x2="149.06156729363335" y1="67.29680712620417" y2="67.29680712620417"/><line clip-path="url(#clipPath4)" fill="none" x1="149.06156729363335" x2="151.63679312371147" y1="67.29680712620417" y2="67.29680712620417"/><line clip-path="url(#clipPath4)" fill="none" x1="151.63679312371147" x2="154.2120189537896" y1="67.29680712620417" y2="67.29680712620417"/><line clip-path="url(#clipPath4)" fill="none" x1="154.2120189537896" x2="156.78724478386772" y1="67.29680712620417" y2="67.29680712620417"/><line clip-path="url(#clipPath4)" fill="none" x1="156.78724478386772" x2="159.36247061394585" y1="67.29680712620417" y2="67.29680712620417"/><line clip-path="url(#clipPath4)" fill="none" x1="159.36247061394585" x2="161.93769644402397" y1="67.29680712620417" y2="67.29680712620417"/><line clip-path="url(#clipPath4)" fill="none" x1="161.93769644402397" x2="164.5129222741021" y1="67.29680712620417" y2="67.29680712620417"/><line clip-path="url(#clipPath4)" fill="none" x1="164.5129222741021" x2="167.09100946621368" y1="67.29680712620417" y2="67.29680712620417"/><line clip-path="url(#clipPath4)" fill="none" x1="167.09100946621368" x2="169.66337393425835" y1="67.29680712620417" y2="67.29680712620417"/><line clip-path="url(#clipPath4)" fill="none" x1="169.66337393425835" x2="172.23859976433647" y1="67.29680712620417" y2="67.29680712620417"/><line clip-path="url(#clipPath4)" fill="none" x1="172.23859976433647" x2="174.8138255944146" y1="67.29680712620417" y2="67.29680712620417"/><line clip-path="url(#clipPath4)" fill="none" x1="174.8138255944146" x2="177.38905142449272" y1="67.29680712620417" y2="67.29680712620417"/><line clip-path="url(#clipPath4)" fill="none" x1="177.38905142449272" x2="179.96427725457085" y1="67.29680712620417" y2="67.29680712620417"/><line clip-path="url(#clipPath4)" fill="none" x1="179.96427725457085" x2="182.53950308464897" y1="67.29680712620417" y2="67.29680712620417"/><line clip-path="url(#clipPath4)" fill="none" x1="182.53950308464897" x2="185.11472891472712" y1="67.29680712620417" y2="67.29680712620417"/><line clip-path="url(#clipPath4)" fill="none" x1="185.11472891472712" x2="187.68995474480522" y1="67.29680712620417" y2="67.29680712620417"/><line clip-path="url(#clipPath4)" fill="none" x1="187.68995474480522" x2="190.26804193691677" y1="67.29680712620417" y2="67.29680712620417"/><line clip-path="url(#clipPath4)" fill="none" x1="190.26804193691677" x2="192.8404064049615" y1="67.29680712620417" y2="67.29680712620417"/><line clip-path="url(#clipPath4)" fill="none" x1="192.8404064049615" x2="195.4156322350396" y1="67.29680712620417" y2="67.29680712620417"/><line clip-path="url(#clipPath4)" fill="none" x1="195.4156322350396" x2="197.99085806511772" y1="67.29680712620417" y2="67.29680712620417"/><line clip-path="url(#clipPath4)" fill="none" x1="197.99085806511772" x2="200.56608389519587" y1="67.29680712620417" y2="67.29680712620417"/><line clip-path="url(#clipPath4)" fill="none" x1="200.56608389519587" x2="203.1441710873074" y1="67.29680712620417" y2="67.29680712620417"/><line clip-path="url(#clipPath4)" fill="none" x1="203.1441710873074" x2="205.7165355553521" y1="67.29680712620417" y2="67.29680712620417"/><line clip-path="url(#clipPath4)" fill="none" x1="205.7165355553521" x2="208.29462274746365" y1="67.29680712620417" y2="67.29680712620417"/><line clip-path="url(#clipPath4)" fill="none" x1="208.29462274746365" x2="210.86698721550835" y1="67.29680712620417" y2="67.29680712620417"/><line clip-path="url(#clipPath4)" fill="none" x1="210.86698721550835" x2="213.44221304558647" y1="67.29680712620417" y2="67.29680712620417"/><line clip-path="url(#clipPath4)" fill="none" x1="213.44221304558647" x2="216.01743887566462" y1="67.29680712620417" y2="67.29680712620417"/><line clip-path="url(#clipPath4)" fill="none" x1="216.01743887566462" x2="218.59266470574272" y1="67.29680712620417" y2="67.29680712620417"/><line clip-path="url(#clipPath4)" fill="none" x1="218.59266470574272" x2="221.16789053582085" y1="67.29680712620417" y2="67.29680712620417"/><line clip-path="url(#clipPath4)" fill="none" x1="221.16789053582085" x2="223.743116365899" y1="67.29680712620417" y2="67.29680712620417"/><line clip-path="url(#clipPath4)" fill="none" x1="223.743116365899" x2="226.3183421959771" y1="67.29680712620417" y2="67.29680712620417"/><line clip-path="url(#clipPath4)" fill="none" x1="226.3183421959771" x2="228.89356802605522" y1="67.29680712620417" y2="67.29680712620417"/><line clip-path="url(#clipPath4)" fill="none" x1="228.89356802605522" x2="231.46879385613337" y1="67.29680712620417" y2="67.29680712620417"/><line clip-path="url(#clipPath4)" fill="none" x1="231.46879385613337" x2="234.04401968621147" y1="67.29680712620417" y2="67.29680712620417"/></g></g></svg></svg>