<?xml version="1.0" encoding="UTF-8"?>
<svg width="1024" height="768" onload="refresh(evt)"><script xlink:href="refresh.js" type="text/ecmascript"/><rect width="100%" height="100%" color="#000000"/><text x="20" y="30" id="LxAbstractText" style="fill:rgb(102,153,255);font-family:&apos;Arial Bold&apos;;font-style:normal;font-weight:normal;font-size:14;opacity:1.0;">JOHNSON</text><text x="270" y="30" id="LxAbstractText" style="fill:rgb(102,153,255);font-family:&apos;Arial Bold&apos;;font-style:normal;font-weight:normal;font-size:14;opacity:1.0;">MONGO</text><path d="M 50.0 280.0 L 50.0 40.0 M 50.0 40.0 L 46.0 46.0 L 54.0 46.0 Z " id="LxLine" style="fill:none;opacity:1.0;stroke:rgb(102,153,255); stroke-width:2.0"/><path d="M 50.0 190.0 L 300.0 190.0 " id="LxLine" style="fill:none;opacity:1.0;stroke:rgb(102,153,255); stroke-width:2.0"/><path d="M 300.0 230.0 L 300.0 40.0 M 300.0 40.0 L 296.0 46.0 L 304.0 46.0 Z " id="LxLine" style="fill:none;opacity:1.0;stroke:rgb(102,153,255); stroke-width:2.0"/><text x="70" y="80" id="LxAbstractText" style="fill:rgb(102,153,255);font-family:&apos;Arial Bold&apos;;font-style:normal;font-weight:normal;font-size:14;opacity:1.0;">8560</text><text x="320" y="80" id="LxAbstractText" style="fill:rgb(102,153,255);font-family:&apos;Arial Bold&apos;;font-style:normal;font-weight:normal;font-size:14;opacity:1.0;">8580</text><a xlink:href="8560_details.html"><image x="40" y="90" width="20" height="20" id="947" xlink:href="RedBox.gif"/></a><image x="290" y="90" width="20" height="20" id="946" xlink:href="RedBox.gif"/><image x="40" y="230" width="40" height="20" id="949" xlink:href="ClosedMotor.gif"/><image x="290" y="231" width="40" height="20" id="937" xlink:href="OpenMotor.gif"/><text x="90" y="240" id="LxAbstractText" style="fill:rgb(102,153,255);font-family:&apos;Arial Bold&apos;;font-style:normal;font-weight:normal;font-size:14;opacity:1.0;">8564</text><text x="340" y="240" id="LxAbstractText" style="fill:rgb(102,153,255);font-family:&apos;Arial Bold&apos;;font-style:normal;font-weight:normal;font-size:14;opacity:1.0;">8582</text><path d="M 50.0 300.0 L 50.0 480.0 M 50.0 480.0 L 54.0 474.0 L 46.0 474.0 Z " id="LxLine" style="fill:none;opacity:1.0;stroke:rgb(255,255,102); stroke-width:2.0"/><image x="20" y="280" width="60" height="20" id="LxAbstractImage" xlink:href="TransformerBY.gif"/><path d="M 50.0 370.0 L 900.0 370.0 " id="LxLine" style="fill:none;opacity:1.0;stroke:rgb(255,255,102); stroke-width:2.0"/><path d="M 900.0 250.0 L 900.0 600.0 M 900.0 250.0 L 896.0 256.0 L 904.0 256.0 Z M 900.0 600.0 L 904.0 594.0 L 896.0 594.0 Z " id="LxLine" style="fill:none;opacity:1.0;stroke:rgb(255,255,102); stroke-width:2.0"/><path d="M 160.0 370.0 L 160.0 480.0 M 160.0 480.0 L 164.0 474.0 L 156.0 474.0 Z " id="LxLine" style="fill:none;opacity:1.0;stroke:rgb(255,255,102); stroke-width:2.0"/><path d="M 270.0 370.0 L 270.0 480.0 M 270.0 480.0 L 274.0 474.0 L 266.0 474.0 Z " id="LxLine" style="fill:none;opacity:1.0;stroke:rgb(255,255,102); stroke-width:2.0"/><path d="M 370.0 370.0 L 370.0 480.0 M 370.0 480.0 L 374.0 474.0 L 366.0 474.0 Z " id="LxLine" style="fill:none;opacity:1.0;stroke:rgb(255,255,102); stroke-width:2.0"/><path d="M 550.0 370.0 L 550.0 480.0 M 550.0 480.0 L 554.0 474.0 L 546.0 474.0 Z " id="LxLine" style="fill:none;opacity:1.0;stroke:rgb(255,255,102); stroke-width:2.0"/><path d="M 820.0 370.0 L 820.0 480.0 M 820.0 480.0 L 824.0 474.0 L 816.0 474.0 Z " id="LxLine" style="fill:none;opacity:1.0;stroke:rgb(255,255,102); stroke-width:2.0"/><path d="M 720.0 370.0 L 720.0 480.0 M 720.0 480.0 L 724.0 474.0 L 716.0 474.0 Z " id="LxLine" style="fill:none;opacity:1.0;stroke:rgb(255,255,102); stroke-width:2.0"/><path d="M 630.0 370.0 L 630.0 480.0 M 630.0 480.0 L 634.0 474.0 L 626.0 474.0 Z " id="LxLine" style="fill:none;opacity:1.0;stroke:rgb(255,255,102); stroke-width:2.0"/><path d="M 780.0 540.0 L 900.0 540.0 " id="LxLine" style="fill:none;opacity:1.0;stroke:rgb(255,255,102); stroke-width:2.0"/><image x="760" y="530" width="20" height="20" id="LxAbstractImage" xlink:href="Capacitor.gif"/><a xlink:href="sublist.html"><image x="510" y="200" width="120" height="20" id="LxAbstractImage" xlink:href="SubListButton.gif"/></a><image x="470" y="90" width="175" height="60" id="LxAbstractImage" xlink:href="BrooksLogo.gif"/><text x="450" y="182" id="LxAbstractText" style="fill:rgb(0,153,0);font-family:&apos;Arial Bold&apos;;font-style:normal;font-weight:normal;font-size:24;opacity:1.0;">Rockridge Substation</text><image x="440" y="30" width="240" height="60" id="LxAbstractImage" xlink:href="EsubLogo.gif"/><text x="72" y="98" id="764" style="fill:rgb(255,255,255);font-family:&apos;Arial Bold&apos;;font-style:normal;font-weight:normal;font-size:12;opacity:1.0;" dattrib="3">-98.88 MW</text><text x="49" y="578" id="764" style="fill:rgb(255,255,255);font-family:&apos;Arial Bold&apos;;font-style:normal;font-weight:normal;font-size:12;opacity:1.0;" dattrib="8">Wed Oct 30 14:50:05 CST 2002</text><text x="72" y="110" id="765" style="fill:rgb(255,255,255);font-family:&apos;Arial Bold&apos;;font-style:normal;font-weight:normal;font-size:12;opacity:1.0;" dattrib="3">10.23 MVAR</text></svg>