<?xml version="1.0" encoding="UTF-8"?>
<svg contentScriptType="text/ecmascript" contentStyleType="text/css" height="768" onload="refresh(evt)" preserveAspectRatio="xMidYMid meet" version="1.0" width="1024" xmlns="http://www.w3.org/2000/svg" zoomAndPan="magnify"><script type="text/ecmascript" xlink:href="refresh.js"></script><rect color="#000000" height="100%" width="100%"></rect><svg color-interpolation="auto" color-rendering="auto" contentScriptType="text/ecmascript" contentStyleType="text/css" db="yukon" end="10:31:2002:00:31:00" fill="black" fill-opacity="1" font-family="'sansserif'" font-size="12" font-style="normal" font-weight="normal" format="svg" gdefid="681" height="289" image-rendering="auto" loadfactor="false" model="2" object="graph" preserveAspectRatio="xMidYMid meet" shape-rendering="auto" start="10:30:2002:00:30:00" stroke="black" stroke-dasharray="none" stroke-dashoffset="0" stroke-linecap="square" stroke-linejoin="miter" stroke-miterlimit="10" stroke-opacity="1" stroke-width="1" text-rendering="auto" version="1.0" width="629" x="15" xmlns="http://www.w3.org/2000/svg" y="25" zoomAndPan="magnify"><defs id="genericDefs"></defs><g><defs id="defs1"><clipPath clipPathUnits="userSpaceOnUse" id="clipPath1"><path d="M0 0 L629 0 L629 289 L0 289 L0 0 Z"></path></clipPath><clipPath clipPathUnits="userSpaceOnUse" id="clipPath2"><path d="M-275.60595703125 -269.421875 L353.39404296875 -269.421875 L353.39404296875 19.578125 L-275.60595703125 19.578125 L-275.60595703125 -269.421875 Z"></path></clipPath><clipPath clipPathUnits="userSpaceOnUse" id="clipPath3"><path d="M183.7052764892578 143.5177764892578 L183.7052764892578 772.5177612304688 L-105.29472351074219 772.5177612304688 L-105.29472351074219 143.5177764892578 L183.7052764892578 143.5177764892578 Z"></path></clipPath><clipPath clipPathUnits="userSpaceOnUse" id="clipPath4"><path d="M53.7783203125 45.771873474121094 L43.7783203125 55.771873474121094 L43.7783203125 226.75 L609 226.75 L619 216.75 L619 45.771873474121094 Z"></path></clipPath></defs><g fill="white" shape-rendering="geometricPrecision" stroke="white" text-rendering="optimizeLegibility"><rect clip-path="url(#clipPath1)" height="289" stroke="none" width="629" x="0" y="0"></rect></g><g font-family="sans-serif" font-weight="bold" shape-rendering="geometricPrecision" text-rendering="optimizeLegibility"><text clip-path="url(#clipPath1)" stroke="none" x="247.134765625" xml:space="preserve" y="16.592578887939453">BE Rockridge 8560 Gas</text><text clip-path="url(#clipPath1)" stroke="none" x="186.12109375" xml:space="preserve" y="38.478515625">Wed October 30, 2002 - Thu October 31, 2002</text><rect clip-path="url(#clipPath2)" fill="white" font-size="10" height="16.578125" stroke="none" transform="translate(275.60595703125,269.421875)" width="77.7880859375" x="0" y="0"></rect><rect clip-path="url(#clipPath2)" fill="none" font-size="10" height="16.578125" stroke="gray" transform="translate(275.60595703125,269.421875)" width="77.7880859375" x="0" y="0"></rect><rect clip-path="url(#clipPath2)" fill="red" font-size="10" height="8.2890625" stroke="none" transform="translate(275.60595703125,269.421875)" width="8.2890625" x="2" y="3.7646484375"></rect><text clip-path="url(#clipPath2)" font-size="10" stroke="none" transform="translate(275.60595703125,269.421875)" x="14" xml:space="preserve" y="12.0537109375">8560 SF6 %</text></g><g fill="white" font-family="sans-serif" font-size="10" shape-rendering="geometricPrecision" stroke="white" text-rendering="optimizeLegibility"><path clip-path="url(#clipPath1)" d="M43.7783203125 55.771873474121094 L53.7783203125 45.771873474121094 L619 45.771873474121094 L619 216.75 L609 226.75 L43.7783203125 226.75 Z" stroke="none"></path><path clip-path="url(#clipPath1)" d="M43.7783203125 55.771873474121094 L53.7783203125 45.771873474121094 L619 45.771873474121094 L619 216.75 L609 226.75 L43.7783203125 226.75 Z" fill="none" stroke="gray"></path><line clip-path="url(#clipPath1)" fill="none" stroke="gray" x1="43.7783203125" x2="53.7783203125" y1="226.74999999999997" y2="216.74999999999997"></line><line clip-path="url(#clipPath1)" fill="none" stroke="gray" x1="53.7783203125" x2="53.7783203125" y1="216.74999999999997" y2="45.771875"></line><line clip-path="url(#clipPath1)" fill="none" stroke="gray" x1="53.7783203125" x2="619" y1="216.74999999999997" y2="216.74999999999997"></line><text clip-path="url(#clipPath1)" fill="black" font-size="12" stroke="none" x="281.36572265625" xml:space="preserve" y="258.392578125">Percent Duration</text><text clip-path="url(#clipPath1)" fill="black" stroke="none" x="70.0849838256836" xml:space="preserve" y="239.130859375"> Oct 30, 00:00 </text><text clip-path="url(#clipPath1)" fill="black" stroke="none" x="148.8041229248047" xml:space="preserve" y="239.130859375"> Oct 30, 01:30 </text><text clip-path="url(#clipPath1)" fill="black" stroke="none" x="227.52325439453125" xml:space="preserve" y="239.130859375"> Oct 30, 03:00 </text><text clip-path="url(#clipPath1)" fill="black" stroke="none" x="306.2424011230469" xml:space="preserve" y="239.130859375"> Oct 30, 04:30 </text><text clip-path="url(#clipPath1)" fill="black" stroke="none" x="384.9615173339844" xml:space="preserve" y="239.130859375"> Oct 30, 06:00 </text><text clip-path="url(#clipPath1)" fill="black" stroke="none" x="463.6806640625" xml:space="preserve" y="239.130859375"> Oct 30, 07:30 </text><text clip-path="url(#clipPath1)" fill="black" stroke="none" x="542.3997802734375" xml:space="preserve" y="239.130859375"> Oct 30, 09:00 </text><text clip-path="url(#clipPath3)" fill="black" font-size="12" stroke="none" transform="matrix(0,-1,1,0,-143.5177764892578,183.7052764892578)" x="20.09375" xml:space="preserve" y="163.6115264892578">Reading</text></g><g font-family="sans-serif" font-size="10" shape-rendering="geometricPrecision" text-rendering="optimizeLegibility"><text clip-path="url(#clipPath1)" stroke="none" x="30.6552734375" xml:space="preserve" y="231.77685546875">80</text><line clip-path="url(#clipPath1)" fill="none" stroke="silver" x1="41.7783203125" x2="43.7783203125" y1="226.75" y2="226.75"></line></g><g fill="gray" font-family="sans-serif" font-size="10" shape-rendering="geometricPrecision" stroke="gray" stroke-dasharray="2,2" stroke-linecap="butt" stroke-linejoin="bevel" stroke-miterlimit="0" stroke-width="0.5" text-rendering="optimizeLegibility"><line clip-path="url(#clipPath1)" fill="none" x1="53.7783203125" x2="619" y1="216.75" y2="216.75"></line><line clip-path="url(#clipPath1)" fill="none" x1="43.7783203125" x2="53.7783203125" y1="226.75" y2="216.75"></line><text clip-path="url(#clipPath1)" fill="black" stroke="none" x="30.6552734375" xml:space="preserve" y="203.28050231933594">85</text></g><g fill="silver" font-family="sans-serif" font-size="10" shape-rendering="geometricPrecision" stroke="silver" text-rendering="optimizeLegibility"><line clip-path="url(#clipPath1)" fill="none" x1="41.7783203125" x2="43.7783203125" y1="198.25364685058594" y2="198.25364685058594"></line></g><g fill="gray" font-family="sans-serif" font-size="10" shape-rendering="geometricPrecision" stroke="gray" stroke-dasharray="2,2" stroke-linecap="butt" stroke-linejoin="bevel" stroke-miterlimit="0" stroke-width="0.5" text-rendering="optimizeLegibility"><line clip-path="url(#clipPath1)" fill="none" x1="53.7783203125" x2="619" y1="188.25364685058594" y2="188.25364685058594"></line><line clip-path="url(#clipPath1)" fill="none" x1="43.7783203125" x2="53.7783203125" y1="198.25364685058594" y2="188.25364685058594"></line><text clip-path="url(#clipPath1)" fill="black" stroke="none" x="30.6552734375" xml:space="preserve" y="174.78414916992188">90</text></g><g fill="silver" font-family="sans-serif" font-size="10" shape-rendering="geometricPrecision" stroke="silver" text-rendering="optimizeLegibility"><line clip-path="url(#clipPath1)" fill="none" x1="41.7783203125" x2="43.7783203125" y1="169.75729370117188" y2="169.75729370117188"></line></g><g fill="gray" font-family="sans-serif" font-size="10" shape-rendering="geometricPrecision" stroke="gray" stroke-dasharray="2,2" stroke-linecap="butt" stroke-linejoin="bevel" stroke-miterlimit="0" stroke-width="0.5" text-rendering="optimizeLegibility"><line clip-path="url(#clipPath1)" fill="none" x1="53.7783203125" x2="619" y1="159.75729370117188" y2="159.75729370117188"></line><line clip-path="url(#clipPath1)" fill="none" x1="43.7783203125" x2="53.7783203125" y1="169.75729370117188" y2="159.75729370117188"></line><text clip-path="url(#clipPath1)" fill="black" stroke="none" x="30.6552734375" xml:space="preserve" y="146.2877960205078">95</text></g><g fill="silver" font-family="sans-serif" font-size="10" shape-rendering="geometricPrecision" stroke="silver" text-rendering="optimizeLegibility"><line clip-path="url(#clipPath1)" fill="none" x1="41.7783203125" x2="43.7783203125" y1="141.2609405517578" y2="141.2609405517578"></line></g><g fill="gray" font-family="sans-serif" font-size="10" shape-rendering="geometricPrecision" stroke="gray" stroke-dasharray="2,2" stroke-linecap="butt" stroke-linejoin="bevel" stroke-miterlimit="0" stroke-width="0.5" text-rendering="optimizeLegibility"><line clip-path="url(#clipPath1)" fill="none" x1="53.7783203125" x2="619" y1="131.2609405517578" y2="131.2609405517578"></line><line clip-path="url(#clipPath1)" fill="none" x1="43.7783203125" x2="53.7783203125" y1="141.2609405517578" y2="131.2609405517578"></line><text clip-path="url(#clipPath1)" fill="black" stroke="none" x="25.09375" xml:space="preserve" y="117.79143524169922">100</text></g><g fill="silver" font-family="sans-serif" font-size="10" shape-rendering="geometricPrecision" stroke="silver" text-rendering="optimizeLegibility"><line clip-path="url(#clipPath1)" fill="none" x1="41.7783203125" x2="43.7783203125" y1="112.76457977294922" y2="112.76457977294922"></line></g><g fill="gray" font-family="sans-serif" font-size="10" shape-rendering="geometricPrecision" stroke="gray" stroke-dasharray="2,2" stroke-linecap="butt" stroke-linejoin="bevel" stroke-miterlimit="0" stroke-width="0.5" text-rendering="optimizeLegibility"><line clip-path="url(#clipPath1)" fill="none" x1="53.7783203125" x2="619" y1="102.76457977294922" y2="102.76457977294922"></line><line clip-path="url(#clipPath1)" fill="none" x1="43.7783203125" x2="53.7783203125" y1="112.76457977294922" y2="102.76457977294922"></line><text clip-path="url(#clipPath1)" fill="black" stroke="none" x="25.09375" xml:space="preserve" y="89.29508209228516">105</text></g><g fill="silver" font-family="sans-serif" font-size="10" shape-rendering="geometricPrecision" stroke="silver" text-rendering="optimizeLegibility"><line clip-path="url(#clipPath1)" fill="none" x1="41.7783203125" x2="43.7783203125" y1="84.26822662353516" y2="84.26822662353516"></line></g><g fill="gray" font-family="sans-serif" font-size="10" shape-rendering="geometricPrecision" stroke="gray" stroke-dasharray="2,2" stroke-linecap="butt" stroke-linejoin="bevel" stroke-miterlimit="0" stroke-width="0.5" text-rendering="optimizeLegibility"><line clip-path="url(#clipPath1)" fill="none" x1="53.7783203125" x2="619" y1="74.26822662353516" y2="74.26822662353516"></line><line clip-path="url(#clipPath1)" fill="none" x1="43.7783203125" x2="53.7783203125" y1="84.26822662353516" y2="74.26822662353516"></line><text clip-path="url(#clipPath1)" fill="black" stroke="none" x="25.09375" xml:space="preserve" y="60.798728942871094">110</text></g><g fill="silver" font-family="sans-serif" font-size="10" shape-rendering="geometricPrecision" stroke="silver" text-rendering="optimizeLegibility"><line clip-path="url(#clipPath1)" fill="none" x1="41.7783203125" x2="43.7783203125" y1="55.771873474121094" y2="55.771873474121094"></line></g><g fill="gray" font-family="sans-serif" font-size="10" shape-rendering="geometricPrecision" stroke="gray" stroke-dasharray="2,2" stroke-linecap="butt" stroke-linejoin="bevel" stroke-miterlimit="0" stroke-width="0.5" text-rendering="optimizeLegibility"><line clip-path="url(#clipPath1)" fill="none" x1="53.7783203125" x2="619" y1="45.771873474121094" y2="45.771873474121094"></line><line clip-path="url(#clipPath1)" fill="none" x1="43.7783203125" x2="53.7783203125" y1="55.771873474121094" y2="45.771873474121094"></line><rect clip-path="url(#clipPath4)" fill="red" height="129.77237774292627" stroke="none" width="10.145004507211537" x="72.039404296875" y="96.9776222570737"></rect><path clip-path="url(#clipPath4)" d="M82.18441009521484 96.97762298583984 L82.18441009521484 226.75 L92.18441009521484 216.75 L92.18441009521484 86.97762298583984" fill="rgb(178,0,0)" stroke="none"></path><path clip-path="url(#clipPath4)" d="M72.0394058227539 96.97762298583984 L82.0394058227539 86.97762298583984 L92.18441009521484 86.97762298583984 L82.18441009521484 96.97762298583984" fill="rgb(178,0,0)" stroke="none"></path></g><g fill="gray" font-family="sans-serif" font-size="10" shape-rendering="geometricPrecision" stroke="gray" stroke-width="0.5" text-rendering="optimizeLegibility"><rect clip-path="url(#clipPath4)" fill="none" height="129.77237774292627" width="10.145004507211537" x="72.039404296875" y="96.9776222570737"></rect><path clip-path="url(#clipPath4)" d="M82.18441009521484 96.97762298583984 L82.18441009521484 226.75 L92.18441009521484 216.75 L92.18441009521484 86.97762298583984" fill="none"></path><path clip-path="url(#clipPath4)" d="M72.0394058227539 96.97762298583984 L82.0394058227539 86.97762298583984 L92.18441009521484 86.97762298583984 L82.18441009521484 96.97762298583984" fill="none"></path><rect clip-path="url(#clipPath4)" fill="red" height="130.17132496198016" stroke="none" width="10.145004507211537" x="85.15925974981023" y="96.57867503801981"></rect><path clip-path="url(#clipPath4)" d="M95.30426788330078 96.57867431640625 L95.30426788330078 226.75 L105.30426788330078 216.75 L105.30426788330078 86.57867431640625" fill="rgb(178,0,0)" stroke="none"></path><path clip-path="url(#clipPath4)" d="M85.15925598144531 96.57867431640625 L95.15925598144531 86.57867431640625 L105.30426788330078 86.57867431640625 L95.30426788330078 96.57867431640625" fill="rgb(178,0,0)" stroke="none"></path><rect clip-path="url(#clipPath4)" fill="none" height="130.17132496198016" width="10.145004507211537" x="85.15925974981023" y="96.57867503801981"></rect><path clip-path="url(#clipPath4)" d="M95.30426788330078 96.57867431640625 L95.30426788330078 226.75 L105.30426788330078 216.75 L105.30426788330078 86.57867431640625" fill="none"></path><path clip-path="url(#clipPath4)" d="M85.15925598144531 96.57867431640625 L95.15925598144531 86.57867431640625 L105.30426788330078 86.57867431640625 L95.30426788330078 96.57867431640625" fill="none"></path><rect clip-path="url(#clipPath4)" fill="red" height="130.17132496198016" stroke="none" width="10.145004507211537" x="98.27911520274546" y="96.57867503801981"></rect><path clip-path="url(#clipPath4)" d="M108.42411804199219 96.57867431640625 L108.42411804199219 226.75 L118.42411804199219 216.75 L118.42411804199219 86.57867431640625" fill="rgb(178,0,0)" stroke="none"></path><path clip-path="url(#clipPath4)" d="M98.27911376953125 96.57867431640625 L108.27911376953125 86.57867431640625 L118.42411804199219 86.57867431640625 L108.42411804199219 96.57867431640625" fill="rgb(178,0,0)" stroke="none"></path><rect clip-path="url(#clipPath4)" fill="none" height="130.17132496198016" width="10.145004507211537" x="98.27911520274546" y="96.57867503801981"></rect><path clip-path="url(#clipPath4)" d="M108.42411804199219 96.57867431640625 L108.42411804199219 226.75 L118.42411804199219 216.75 L118.42411804199219 86.57867431640625" fill="none"></path><path clip-path="url(#clipPath4)" d="M98.27911376953125 96.57867431640625 L108.27911376953125 86.57867431640625 L118.42411804199219 86.57867431640625 L108.42411804199219 96.57867431640625" fill="none"></path><rect clip-path="url(#clipPath4)" fill="red" height="130.57031566301978" stroke="none" width="10.145004507211537" x="111.39897065568066" y="96.17968433698019"></rect><path clip-path="url(#clipPath4)" d="M121.54397583007812 96.1796875 L121.54397583007812 226.75 L131.54397583007812 216.75 L131.54397583007812 86.1796875" fill="rgb(178,0,0)" stroke="none"></path><path clip-path="url(#clipPath4)" d="M111.39897155761719 96.1796875 L121.39897155761719 86.1796875 L131.54397583007812 86.1796875 L121.54397583007812 96.1796875" fill="rgb(178,0,0)" stroke="none"></path><rect clip-path="url(#clipPath4)" fill="none" height="130.57031566301978" width="10.145004507211537" x="111.39897065568066" y="96.17968433698019"></rect><path clip-path="url(#clipPath4)" d="M121.54397583007812 96.1796875 L121.54397583007812 226.75 L131.54397583007812 216.75 L131.54397583007812 86.1796875" fill="none"></path><path clip-path="url(#clipPath4)" d="M111.39897155761719 96.1796875 L121.39897155761719 86.1796875 L131.54397583007812 86.1796875 L121.54397583007812 96.1796875" fill="none"></path><rect clip-path="url(#clipPath4)" fill="red" height="130.9692628820737" stroke="none" width="10.145004507211537" x="124.5188261086159" y="95.78073711792626"></rect><path clip-path="url(#clipPath4)" d="M134.66383361816406 95.7807388305664 L134.66383361816406 226.75 L144.66383361816406 216.75 L144.66383361816406 85.7807388305664" fill="rgb(178,0,0)" stroke="none"></path><path clip-path="url(#clipPath4)" d="M124.51882934570312 95.7807388305664 L134.51882934570312 85.7807388305664 L144.66383361816406 85.7807388305664 L134.66383361816406 95.7807388305664" fill="rgb(178,0,0)" stroke="none"></path><rect clip-path="url(#clipPath4)" fill="none" height="130.9692628820737" width="10.145004507211537" x="124.5188261086159" y="95.78073711792626"></rect><path clip-path="url(#clipPath4)" d="M134.66383361816406 95.7807388305664 L134.66383361816406 226.75 L144.66383361816406 216.75 L144.66383361816406 85.7807388305664" fill="none"></path><path clip-path="url(#clipPath4)" d="M124.51882934570312 95.7807388305664 L134.51882934570312 85.7807388305664 L144.66383361816406 85.7807388305664 L134.66383361816406 95.7807388305664" fill="none"></path><rect clip-path="url(#clipPath4)" fill="red" height="130.9692628820737" stroke="none" width="10.145004507211537" x="137.6386815615511" y="95.78073711792626"></rect><path clip-path="url(#clipPath4)" d="M147.78369140625 95.7807388305664 L147.78369140625 226.75 L157.78369140625 216.75 L157.78369140625 85.7807388305664" fill="rgb(178,0,0)" stroke="none"></path><path clip-path="url(#clipPath4)" d="M137.63868713378906 95.7807388305664 L147.63868713378906 85.7807388305664 L157.78369140625 85.7807388305664 L147.78369140625 95.7807388305664" fill="rgb(178,0,0)" stroke="none"></path><rect clip-path="url(#clipPath4)" fill="none" height="130.9692628820737" width="10.145004507211537" x="137.6386815615511" y="95.78073711792626"></rect><path clip-path="url(#clipPath4)" d="M147.78369140625 95.7807388305664 L147.78369140625 226.75 L157.78369140625 216.75 L157.78369140625 85.7807388305664" fill="none"></path><path clip-path="url(#clipPath4)" d="M137.63868713378906 95.7807388305664 L147.63868713378906 85.7807388305664 L157.78369140625 85.7807388305664 L147.78369140625 95.7807388305664" fill="none"></path><rect clip-path="url(#clipPath4)" fill="red" height="130.0573586773872" stroke="none" width="10.145004507211537" x="150.75853701448634" y="96.69264132261276"></rect><path clip-path="url(#clipPath4)" d="M160.90353393554688 96.69264221191406 L160.90353393554688 226.75 L170.90353393554688 216.75 L170.90353393554688 86.69264221191406" fill="rgb(178,0,0)" stroke="none"></path><path clip-path="url(#clipPath4)" d="M150.75852966308594 96.69264221191406 L160.75852966308594 86.69264221191406 L170.90353393554688 86.69264221191406 L160.90353393554688 96.69264221191406" fill="rgb(178,0,0)" stroke="none"></path><rect clip-path="url(#clipPath4)" fill="none" height="130.0573586773872" width="10.145004507211537" x="150.75853701448634" y="96.69264132261276"></rect><path clip-path="url(#clipPath4)" d="M160.90353393554688 96.69264221191406 L160.90353393554688 226.75 L170.90353393554688 216.75 L170.90353393554688 86.69264221191406" fill="none"></path><path clip-path="url(#clipPath4)" d="M150.75852966308594 96.69264221191406 L160.75852966308594 86.69264221191406 L170.90353393554688 86.69264221191406 L160.90353393554688 96.69264221191406" fill="none"></path><rect clip-path="url(#clipPath4)" fill="red" height="130.45630589644114" stroke="none" width="10.145004507211537" x="163.87839246742155" y="96.29369410355883"></rect><path clip-path="url(#clipPath4)" d="M174.0233917236328 96.29369354248047 L174.0233917236328 226.75 L184.0233917236328 216.75 L184.0233917236328 86.29369354248047" fill="rgb(178,0,0)" stroke="none"></path><path clip-path="url(#clipPath4)" d="M163.87838745117188 96.29369354248047 L173.87838745117188 86.29369354248047 L184.0233917236328 86.29369354248047 L174.0233917236328 96.29369354248047" fill="rgb(178,0,0)" stroke="none"></path><rect clip-path="url(#clipPath4)" fill="none" height="130.45630589644114" width="10.145004507211537" x="163.87839246742155" y="96.29369410355883"></rect><path clip-path="url(#clipPath4)" d="M174.0233917236328 96.29369354248047 L174.0233917236328 226.75 L184.0233917236328 216.75 L184.0233917236328 86.29369354248047" fill="none"></path><path clip-path="url(#clipPath4)" d="M163.87838745117188 96.29369354248047 L173.87838745117188 86.29369354248047 L184.0233917236328 86.29369354248047 L174.0233917236328 96.29369354248047" fill="none"></path><rect clip-path="url(#clipPath4)" fill="red" height="130.85525311549503" stroke="none" width="10.145004507211537" x="176.99824792035676" y="95.89474688450494"></rect><path clip-path="url(#clipPath4)" d="M187.14324951171875 95.89474487304688 L187.14324951171875 226.75 L197.14324951171875 216.75 L197.14324951171875 85.89474487304688" fill="rgb(178,0,0)" stroke="none"></path><path clip-path="url(#clipPath4)" d="M176.9982452392578 95.89474487304688 L186.9982452392578 85.89474487304688 L197.14324951171875 85.89474487304688 L187.14324951171875 95.89474487304688" fill="rgb(178,0,0)" stroke="none"></path><rect clip-path="url(#clipPath4)" fill="none" height="130.85525311549503" width="10.145004507211537" x="176.99824792035676" y="95.89474688450494"></rect><path clip-path="url(#clipPath4)" d="M187.14324951171875 95.89474487304688 L187.14324951171875 226.75 L197.14324951171875 216.75 L197.14324951171875 85.89474487304688" fill="none"></path><path clip-path="url(#clipPath4)" d="M176.9982452392578 95.89474487304688 L186.9982452392578 85.89474487304688 L197.14324951171875 85.89474487304688 L187.14324951171875 95.89474487304688" fill="none"></path><rect clip-path="url(#clipPath4)" fill="red" height="130.85525311549503" stroke="none" width="10.145004507211537" x="190.118103373292" y="95.89474688450494"></rect><path clip-path="url(#clipPath4)" d="M200.2631072998047 95.89474487304688 L200.2631072998047 226.75 L210.2631072998047 216.75 L210.2631072998047 85.89474487304688" fill="rgb(178,0,0)" stroke="none"></path><path clip-path="url(#clipPath4)" d="M190.11810302734375 95.89474487304688 L200.11810302734375 85.89474487304688 L210.2631072998047 85.89474487304688 L200.2631072998047 95.89474487304688" fill="rgb(178,0,0)" stroke="none"></path><rect clip-path="url(#clipPath4)" fill="none" height="130.85525311549503" width="10.145004507211537" x="190.118103373292" y="95.89474688450494"></rect><path clip-path="url(#clipPath4)" d="M200.2631072998047 95.89474487304688 L200.2631072998047 226.75 L210.2631072998047 216.75 L210.2631072998047 85.89474487304688" fill="none"></path><path clip-path="url(#clipPath4)" d="M190.11810302734375 95.89474487304688 L200.11810302734375 85.89474487304688 L210.2631072998047 85.89474487304688 L200.2631072998047 95.89474487304688" fill="none"></path><rect clip-path="url(#clipPath4)" fill="red" height="129.60140657504397" stroke="none" width="10.145004507211537" x="203.23795882622724" y="97.148593424956"></rect><path clip-path="url(#clipPath4)" d="M213.38296508789062 97.14859008789062 L213.38296508789062 226.75 L223.38296508789062 216.75 L223.38296508789062 87.14859008789062" fill="rgb(178,0,0)" stroke="none"></path><path clip-path="url(#clipPath4)" d="M203.2379608154297 97.14859008789062 L213.2379608154297 87.14859008789062 L223.38296508789062 87.14859008789062 L213.38296508789062 97.14859008789062" fill="rgb(178,0,0)" stroke="none"></path><rect clip-path="url(#clipPath4)" fill="none" height="129.60140657504397" width="10.145004507211537" x="203.23795882622724" y="97.148593424956"></rect><path clip-path="url(#clipPath4)" d="M213.38296508789062 97.14859008789062 L213.38296508789062 226.75 L223.38296508789062 216.75 L223.38296508789062 87.14859008789062" fill="none"></path><path clip-path="url(#clipPath4)" d="M203.2379608154297 97.14859008789062 L213.2379608154297 87.14859008789062 L223.38296508789062 87.14859008789062 L213.38296508789062 97.14859008789062" fill="none"></path><rect clip-path="url(#clipPath4)" fill="red" height="129.94339239279427" stroke="none" width="10.145004507211537" x="216.35781427916243" y="96.8066076072057"></rect><path clip-path="url(#clipPath4)" d="M226.50282287597656 96.80661010742188 L226.50282287597656 226.75 L236.50282287597656 216.75 L236.50282287597656 86.80661010742188" fill="rgb(178,0,0)" stroke="none"></path><path clip-path="url(#clipPath4)" d="M216.35781860351562 96.80661010742188 L226.35781860351562 86.80661010742188 L236.50282287597656 86.80661010742188 L226.50282287597656 96.80661010742188" fill="rgb(178,0,0)" stroke="none"></path><rect clip-path="url(#clipPath4)" fill="none" height="129.94339239279427" width="10.145004507211537" x="216.35781427916243" y="96.8066076072057"></rect><path clip-path="url(#clipPath4)" d="M226.50282287597656 96.80661010742188 L226.50282287597656 226.75 L236.50282287597656 216.75 L236.50282287597656 86.80661010742188" fill="none"></path><path clip-path="url(#clipPath4)" d="M216.35781860351562 96.80661010742188 L226.35781860351562 86.80661010742188 L236.50282287597656 86.80661010742188 L226.50282287597656 96.80661010742188" fill="none"></path><rect clip-path="url(#clipPath4)" fill="red" height="129.94339239279427" stroke="none" width="10.145004507211537" x="229.47766973209764" y="96.8066076072057"></rect><path clip-path="url(#clipPath4)" d="M239.6226806640625 96.80661010742188 L239.6226806640625 226.75 L249.6226806640625 216.75 L249.6226806640625 86.80661010742188" fill="rgb(178,0,0)" stroke="none"></path><path clip-path="url(#clipPath4)" d="M229.47767639160156 96.80661010742188 L239.47767639160156 86.80661010742188 L249.6226806640625 86.80661010742188 L239.6226806640625 96.80661010742188" fill="rgb(178,0,0)" stroke="none"></path><rect clip-path="url(#clipPath4)" fill="none" height="129.94339239279427" width="10.145004507211537" x="229.47766973209764" y="96.8066076072057"></rect><path clip-path="url(#clipPath4)" d="M239.6226806640625 96.80661010742188 L239.6226806640625 226.75 L249.6226806640625 216.75 L249.6226806640625 86.80661010742188" fill="none"></path><path clip-path="url(#clipPath4)" d="M229.47767639160156 96.80661010742188 L239.47767639160156 86.80661010742188 L249.6226806640625 86.80661010742188 L239.6226806640625 96.80661010742188" fill="none"></path><rect clip-path="url(#clipPath4)" fill="red" height="129.94339239279427" stroke="none" width="10.145004507211537" x="242.5975251850329" y="96.8066076072057"></rect><path clip-path="url(#clipPath4)" d="M252.74252319335938 96.80661010742188 L252.74252319335938 226.75 L262.7425231933594 216.75 L262.7425231933594 86.80661010742188" fill="rgb(178,0,0)" stroke="none"></path><path clip-path="url(#clipPath4)" d="M242.59751892089844 96.80661010742188 L252.59751892089844 86.80661010742188 L262.7425231933594 86.80661010742188 L252.74252319335938 96.80661010742188" fill="rgb(178,0,0)" stroke="none"></path><rect clip-path="url(#clipPath4)" fill="none" height="129.94339239279427" width="10.145004507211537" x="242.5975251850329" y="96.8066076072057"></rect><path clip-path="url(#clipPath4)" d="M252.74252319335938 96.80661010742188 L252.74252319335938 226.75 L262.7425231933594 216.75 L262.7425231933594 86.80661010742188" fill="none"></path><path clip-path="url(#clipPath4)" d="M242.59751892089844 96.80661010742188 L252.59751892089844 86.80661010742188 L262.7425231933594 86.80661010742188 L252.74252319335938 96.80661010742188" fill="none"></path><rect clip-path="url(#clipPath4)" fill="red" height="129.94339239279427" stroke="none" width="10.145004507211537" x="255.7173806379681" y="96.8066076072057"></rect><path clip-path="url(#clipPath4)" d="M265.8623962402344 96.80661010742188 L265.8623962402344 226.75 L275.8623962402344 216.75 L275.8623962402344 86.80661010742188" fill="rgb(178,0,0)" stroke="none"></path><path clip-path="url(#clipPath4)" d="M255.71737670898438 96.80661010742188 L265.7173767089844 86.80661010742188 L275.8623962402344 86.80661010742188 L265.8623962402344 96.80661010742188" fill="rgb(178,0,0)" stroke="none"></path><rect clip-path="url(#clipPath4)" fill="none" height="129.94339239279427" width="10.145004507211537" x="255.7173806379681" y="96.8066076072057"></rect><path clip-path="url(#clipPath4)" d="M265.8623962402344 96.80661010742188 L265.8623962402344 226.75 L275.8623962402344 216.75 L275.8623962402344 86.80661010742188" fill="none"></path><path clip-path="url(#clipPath4)" d="M255.71737670898438 96.80661010742188 L265.7173767089844 86.80661010742188 L275.8623962402344 86.80661010742188 L265.8623962402344 96.80661010742188" fill="none"></path><rect clip-path="url(#clipPath4)" fill="red" height="130.74128683090208" stroke="none" width="10.145004507211537" x="268.83723609090333" y="96.00871316909789"></rect><path clip-path="url(#clipPath4)" d="M278.98223876953125 96.00871276855469 L278.98223876953125 226.75 L288.98223876953125 216.75 L288.98223876953125 86.00871276855469" fill="rgb(178,0,0)" stroke="none"></path><path clip-path="url(#clipPath4)" d="M268.8372497558594 96.00871276855469 L278.8372497558594 86.00871276855469 L288.98223876953125 86.00871276855469 L278.98223876953125 96.00871276855469" fill="rgb(178,0,0)" stroke="none"></path><rect clip-path="url(#clipPath4)" fill="none" height="130.74128683090208" width="10.145004507211537" x="268.83723609090333" y="96.00871316909789"></rect><path clip-path="url(#clipPath4)" d="M278.98223876953125 96.00871276855469 L278.98223876953125 226.75 L288.98223876953125 216.75 L288.98223876953125 86.00871276855469" fill="none"></path><path clip-path="url(#clipPath4)" d="M268.8372497558594 96.00871276855469 L278.8372497558594 86.00871276855469 L288.98223876953125 86.00871276855469 L278.98223876953125 96.00871276855469" fill="none"></path><rect clip-path="url(#clipPath4)" fill="red" height="130.6272770643234" stroke="none" width="10.145004507211537" x="281.95709154383854" y="96.12272293567656"></rect><path clip-path="url(#clipPath4)" d="M292.1020812988281 96.12272644042969 L292.1020812988281 226.75 L302.1020812988281 216.75 L302.1020812988281 86.12272644042969" fill="rgb(178,0,0)" stroke="none"></path><path clip-path="url(#clipPath4)" d="M281.95709228515625 96.12272644042969 L291.95709228515625 86.12272644042969 L302.1020812988281 86.12272644042969 L292.1020812988281 96.12272644042969" fill="rgb(178,0,0)" stroke="none"></path><rect clip-path="url(#clipPath4)" fill="none" height="130.6272770643234" width="10.145004507211537" x="281.95709154383854" y="96.12272293567656"></rect><path clip-path="url(#clipPath4)" d="M292.1020812988281 96.12272644042969 L292.1020812988281 226.75 L302.1020812988281 216.75 L302.1020812988281 86.12272644042969" fill="none"></path><path clip-path="url(#clipPath4)" d="M281.95709228515625 96.12272644042969 L291.95709228515625 86.12272644042969 L302.1020812988281 86.12272644042969 L292.1020812988281 96.12272644042969" fill="none"></path><rect clip-path="url(#clipPath4)" fill="red" height="131.42517150243123" stroke="none" width="10.145004507211537" x="295.07694699677376" y="95.32482849756875"></rect><path clip-path="url(#clipPath4)" d="M305.2219543457031 95.3248291015625 L305.2219543457031 226.75 L315.2219543457031 216.75 L315.2219543457031 85.3248291015625" fill="rgb(178,0,0)" stroke="none"></path><path clip-path="url(#clipPath4)" d="M295.0769348144531 95.3248291015625 L305.0769348144531 85.3248291015625 L315.2219543457031 85.3248291015625 L305.2219543457031 95.3248291015625" fill="rgb(178,0,0)" stroke="none"></path><rect clip-path="url(#clipPath4)" fill="none" height="131.42517150243123" width="10.145004507211537" x="295.07694699677376" y="95.32482849756875"></rect><path clip-path="url(#clipPath4)" d="M305.2219543457031 95.3248291015625 L305.2219543457031 226.75 L315.2219543457031 216.75 L315.2219543457031 85.3248291015625" fill="none"></path><path clip-path="url(#clipPath4)" d="M295.0769348144531 95.3248291015625 L305.0769348144531 85.3248291015625 L315.2219543457031 85.3248291015625 L305.2219543457031 95.3248291015625" fill="none"></path><rect clip-path="url(#clipPath4)" fill="red" height="131.31120521783828" stroke="none" width="10.145004507211537" x="308.19680244970897" y="95.4387947821617"></rect><path clip-path="url(#clipPath4)" d="M318.341796875 95.43879699707031 L318.341796875 226.75 L328.341796875 216.75 L328.341796875 85.43879699707031" fill="rgb(178,0,0)" stroke="none"></path><path clip-path="url(#clipPath4)" d="M308.1968078613281 95.43879699707031 L318.1968078613281 85.43879699707031 L328.341796875 85.43879699707031 L318.341796875 95.43879699707031" fill="rgb(178,0,0)" stroke="none"></path><rect clip-path="url(#clipPath4)" fill="none" height="131.31120521783828" width="10.145004507211537" x="308.19680244970897" y="95.4387947821617"></rect><path clip-path="url(#clipPath4)" d="M318.341796875 95.43879699707031 L318.341796875 226.75 L328.341796875 216.75 L328.341796875 85.43879699707031" fill="none"></path><path clip-path="url(#clipPath4)" d="M308.1968078613281 95.43879699707031 L318.1968078613281 85.43879699707031 L328.341796875 85.43879699707031 L318.341796875 95.43879699707031" fill="none"></path><rect clip-path="url(#clipPath4)" fill="red" height="130.79824823220568" stroke="none" width="10.145004507211537" x="321.3166579026442" y="95.95175176779429"></rect><path clip-path="url(#clipPath4)" d="M331.461669921875 95.95175170898438 L331.461669921875 226.75 L341.461669921875 216.75 L341.461669921875 85.95175170898438" fill="rgb(178,0,0)" stroke="none"></path><path clip-path="url(#clipPath4)" d="M321.316650390625 95.95175170898438 L331.316650390625 85.95175170898438 L341.461669921875 85.95175170898438 L331.461669921875 95.95175170898438" fill="rgb(178,0,0)" stroke="none"></path><rect clip-path="url(#clipPath4)" fill="none" height="130.79824823220568" width="10.145004507211537" x="321.3166579026442" y="95.95175176779429"></rect><path clip-path="url(#clipPath4)" d="M331.461669921875 95.95175170898438 L331.461669921875 226.75 L341.461669921875 216.75 L341.461669921875 85.95175170898438" fill="none"></path><path clip-path="url(#clipPath4)" d="M321.316650390625 95.95175170898438 L331.316650390625 85.95175170898438 L341.461669921875 85.95175170898438 L331.461669921875 95.95175170898438" fill="none"></path><rect clip-path="url(#clipPath4)" fill="red" height="131.5961426703135" stroke="none" width="10.145004507211537" x="334.43651335557945" y="95.15385732968647"></rect><path clip-path="url(#clipPath4)" d="M344.5815124511719 95.15385437011719 L344.5815124511719 226.75 L354.5815124511719 216.75 L354.5815124511719 85.15385437011719" fill="rgb(178,0,0)" stroke="none"></path><path clip-path="url(#clipPath4)" d="M334.4365234375 95.15385437011719 L344.4365234375 85.15385437011719 L354.5815124511719 85.15385437011719 L344.5815124511719 95.15385437011719" fill="rgb(178,0,0)" stroke="none"></path><rect clip-path="url(#clipPath4)" fill="none" height="131.5961426703135" width="10.145004507211537" x="334.43651335557945" y="95.15385732968647"></rect><path clip-path="url(#clipPath4)" d="M344.5815124511719 95.15385437011719 L344.5815124511719 226.75 L354.5815124511719 216.75 L354.5815124511719 85.15385437011719" fill="none"></path><path clip-path="url(#clipPath4)" d="M334.4365234375 95.15385437011719 L344.4365234375 85.15385437011719 L354.5815124511719 85.15385437011719 L344.5815124511719 95.15385437011719" fill="none"></path><rect clip-path="url(#clipPath4)" fill="red" height="131.14023404995598" stroke="none" width="10.145004507211537" x="347.55636880851466" y="95.609765950044"></rect><path clip-path="url(#clipPath4)" d="M357.7013854980469 95.6097640991211 L357.7013854980469 226.75 L367.7013854980469 216.75 L367.7013854980469 85.6097640991211" fill="rgb(178,0,0)" stroke="none"></path><path clip-path="url(#clipPath4)" d="M347.5563659667969 95.6097640991211 L357.5563659667969 85.6097640991211 L367.7013854980469 85.6097640991211 L357.7013854980469 95.6097640991211" fill="rgb(178,0,0)" stroke="none"></path><rect clip-path="url(#clipPath4)" fill="none" height="131.14023404995598" width="10.145004507211537" x="347.55636880851466" y="95.609765950044"></rect><path clip-path="url(#clipPath4)" d="M357.7013854980469 95.6097640991211 L357.7013854980469 226.75 L367.7013854980469 216.75 L367.7013854980469 85.6097640991211" fill="none"></path><path clip-path="url(#clipPath4)" d="M347.5563659667969 95.6097640991211 L357.5563659667969 85.6097640991211 L367.7013854980469 85.6097640991211 L357.7013854980469 95.6097640991211" fill="none"></path><rect clip-path="url(#clipPath4)" fill="red" height="130.2283298452695" stroke="none" width="10.145004507211537" x="360.6762242614499" y="96.52167015473046"></rect><path clip-path="url(#clipPath4)" d="M370.82122802734375 96.52166748046875 L370.82122802734375 226.75 L380.82122802734375 216.75 L380.82122802734375 86.52166748046875" fill="rgb(178,0,0)" stroke="none"></path><path clip-path="url(#clipPath4)" d="M360.6762390136719 96.52166748046875 L370.6762390136719 86.52166748046875 L380.82122802734375 86.52166748046875 L370.82122802734375 96.52166748046875" fill="rgb(178,0,0)" stroke="none"></path><rect clip-path="url(#clipPath4)" fill="none" height="130.2283298452695" width="10.145004507211537" x="360.6762242614499" y="96.52167015473046"></rect><path clip-path="url(#clipPath4)" d="M370.82122802734375 96.52166748046875 L370.82122802734375 226.75 L380.82122802734375 216.75 L380.82122802734375 86.52166748046875" fill="none"></path><path clip-path="url(#clipPath4)" d="M360.6762390136719 96.52166748046875 L370.6762390136719 86.52166748046875 L380.82122802734375 86.52166748046875 L370.82122802734375 96.52166748046875" fill="none"></path><rect clip-path="url(#clipPath4)" fill="red" height="131.0262242833773" stroke="none" width="10.145004507211537" x="373.7960797143851" y="95.72377571662267"></rect><path clip-path="url(#clipPath4)" d="M383.9410705566406 95.7237777709961 L383.9410705566406 226.75 L393.9410705566406 216.75 L393.9410705566406 85.7237777709961" fill="rgb(178,0,0)" stroke="none"></path><path clip-path="url(#clipPath4)" d="M373.79608154296875 95.7237777709961 L383.79608154296875 85.7237777709961 L393.9410705566406 85.7237777709961 L383.9410705566406 95.7237777709961" fill="rgb(178,0,0)" stroke="none"></path><rect clip-path="url(#clipPath4)" fill="none" height="131.0262242833773" width="10.145004507211537" x="373.7960797143851" y="95.72377571662267"></rect><path clip-path="url(#clipPath4)" d="M383.9410705566406 95.7237777709961 L383.9410705566406 226.75 L393.9410705566406 216.75 L393.9410705566406 85.7237777709961" fill="none"></path><path clip-path="url(#clipPath4)" d="M373.79608154296875 95.7237777709961 L383.79608154296875 85.7237777709961 L393.9410705566406 85.7237777709961 L383.9410705566406 95.7237777709961" fill="none"></path><rect clip-path="url(#clipPath4)" fill="red" height="130.51331077973046" stroke="none" width="10.145004507211537" x="386.9159351673203" y="96.23668922026951"></rect><path clip-path="url(#clipPath4)" d="M397.0609436035156 96.23668670654297 L397.0609436035156 226.75 L407.0609436035156 216.75 L407.0609436035156 86.23668670654297" fill="rgb(178,0,0)" stroke="none"></path><path clip-path="url(#clipPath4)" d="M386.9159240722656 96.23668670654297 L396.9159240722656 86.23668670654297 L407.0609436035156 86.23668670654297 L397.0609436035156 96.23668670654297" fill="rgb(178,0,0)" stroke="none"></path><rect clip-path="url(#clipPath4)" fill="none" height="130.51331077973046" width="10.145004507211537" x="386.9159351673203" y="96.23668922026951"></rect><path clip-path="url(#clipPath4)" d="M397.0609436035156 96.23668670654297 L397.0609436035156 226.75 L407.0609436035156 216.75 L407.0609436035156 86.23668670654297" fill="none"></path><path clip-path="url(#clipPath4)" d="M386.9159240722656 96.23668670654297 L396.9159240722656 86.23668670654297 L407.0609436035156 86.23668670654297 L397.0609436035156 96.23668670654297" fill="none"></path><rect clip-path="url(#clipPath4)" fill="red" height="131.31120521783828" stroke="none" width="10.145004507211537" x="400.0357906202555" y="95.4387947821617"></rect><path clip-path="url(#clipPath4)" d="M410.1807861328125 95.43879699707031 L410.1807861328125 226.75 L420.1807861328125 216.75 L420.1807861328125 85.43879699707031" fill="rgb(178,0,0)" stroke="none"></path><path clip-path="url(#clipPath4)" d="M400.0357971191406 95.43879699707031 L410.0357971191406 85.43879699707031 L420.1807861328125 85.43879699707031 L410.1807861328125 95.43879699707031" fill="rgb(178,0,0)" stroke="none"></path><rect clip-path="url(#clipPath4)" fill="none" height="131.31120521783828" width="10.145004507211537" x="400.0357906202555" y="95.4387947821617"></rect><path clip-path="url(#clipPath4)" d="M410.1807861328125 95.43879699707031 L410.1807861328125 226.75 L420.1807861328125 216.75 L420.1807861328125 85.43879699707031" fill="none"></path><path clip-path="url(#clipPath4)" d="M400.0357971191406 95.43879699707031 L410.0357971191406 85.43879699707031 L420.1807861328125 85.43879699707031 L410.1807861328125 95.43879699707031" fill="none"></path><rect clip-path="url(#clipPath4)" fill="red" height="130.79824823220568" stroke="none" width="10.145004507211537" x="413.1556460731907" y="95.95175176779429"></rect><path clip-path="url(#clipPath4)" d="M423.3006591796875 95.95175170898438 L423.3006591796875 226.75 L433.3006591796875 216.75 L433.3006591796875 85.95175170898438" fill="rgb(178,0,0)" stroke="none"></path><path clip-path="url(#clipPath4)" d="M413.1556396484375 95.95175170898438 L423.1556396484375 85.95175170898438 L433.3006591796875 85.95175170898438 L423.3006591796875 95.95175170898438" fill="rgb(178,0,0)" stroke="none"></path><rect clip-path="url(#clipPath4)" fill="none" height="130.79824823220568" width="10.145004507211537" x="413.1556460731907" y="95.95175176779429"></rect><path clip-path="url(#clipPath4)" d="M423.3006591796875 95.95175170898438 L423.3006591796875 226.75 L433.3006591796875 216.75 L433.3006591796875 85.95175170898438" fill="none"></path><path clip-path="url(#clipPath4)" d="M413.1556396484375 95.95175170898438 L423.1556396484375 85.95175170898438 L433.3006591796875 85.95175170898438 L423.3006591796875 95.95175170898438" fill="none"></path><rect clip-path="url(#clipPath4)" fill="red" height="129.94339239279427" stroke="none" width="10.145004507211537" x="426.27550152612594" y="96.8066076072057"></rect><path clip-path="url(#clipPath4)" d="M436.4205017089844 96.80661010742188 L436.4205017089844 226.75 L446.4205017089844 216.75 L446.4205017089844 86.80661010742188" fill="rgb(178,0,0)" stroke="none"></path><path clip-path="url(#clipPath4)" d="M426.2755126953125 96.80661010742188 L436.2755126953125 86.80661010742188 L446.4205017089844 86.80661010742188 L436.4205017089844 96.80661010742188" fill="rgb(178,0,0)" stroke="none"></path><rect clip-path="url(#clipPath4)" fill="none" height="129.94339239279427" width="10.145004507211537" x="426.27550152612594" y="96.8066076072057"></rect><path clip-path="url(#clipPath4)" d="M436.4205017089844 96.80661010742188 L436.4205017089844 226.75 L446.4205017089844 216.75 L446.4205017089844 86.80661010742188" fill="none"></path><path clip-path="url(#clipPath4)" d="M426.2755126953125 96.80661010742188 L436.2755126953125 86.80661010742188 L446.4205017089844 86.80661010742188 L436.4205017089844 96.80661010742188" fill="none"></path><rect clip-path="url(#clipPath4)" fill="red" height="130.74128683090208" stroke="none" width="10.145004507211537" x="439.39535697906115" y="96.00871316909789"></rect><path clip-path="url(#clipPath4)" d="M449.5403747558594 96.00871276855469 L449.5403747558594 226.75 L459.5403747558594 216.75 L459.5403747558594 86.00871276855469" fill="rgb(178,0,0)" stroke="none"></path><path clip-path="url(#clipPath4)" d="M439.3953552246094 96.00871276855469 L449.3953552246094 86.00871276855469 L459.5403747558594 86.00871276855469 L449.5403747558594 96.00871276855469" fill="rgb(178,0,0)" stroke="none"></path><rect clip-path="url(#clipPath4)" fill="none" height="130.74128683090208" width="10.145004507211537" x="439.39535697906115" y="96.00871316909789"></rect><path clip-path="url(#clipPath4)" d="M449.5403747558594 96.00871276855469 L449.5403747558594 226.75 L459.5403747558594 216.75 L459.5403747558594 86.00871276855469" fill="none"></path><path clip-path="url(#clipPath4)" d="M439.3953552246094 96.00871276855469 L449.3953552246094 86.00871276855469 L459.5403747558594 86.00871276855469 L449.5403747558594 96.00871276855469" fill="none"></path><rect clip-path="url(#clipPath4)" fill="red" height="130.74128683090208" stroke="none" width="10.145004507211537" x="452.51521243199636" y="96.00871316909789"></rect><path clip-path="url(#clipPath4)" d="M462.66021728515625 96.00871276855469 L462.66021728515625 226.75 L472.66021728515625 216.75 L472.66021728515625 86.00871276855469" fill="rgb(178,0,0)" stroke="none"></path><path clip-path="url(#clipPath4)" d="M452.51519775390625 96.00871276855469 L462.51519775390625 86.00871276855469 L472.66021728515625 86.00871276855469 L462.66021728515625 96.00871276855469" fill="rgb(178,0,0)" stroke="none"></path><rect clip-path="url(#clipPath4)" fill="none" height="130.74128683090208" width="10.145004507211537" x="452.51521243199636" y="96.00871316909789"></rect><path clip-path="url(#clipPath4)" d="M462.66021728515625 96.00871276855469 L462.66021728515625 226.75 L472.66021728515625 216.75 L472.66021728515625 86.00871276855469" fill="none"></path><path clip-path="url(#clipPath4)" d="M452.51519775390625 96.00871276855469 L462.51519775390625 86.00871276855469 L472.66021728515625 86.00871276855469 L462.66021728515625 96.00871276855469" fill="none"></path><rect clip-path="url(#clipPath4)" fill="red" height="129.8293826262156" stroke="none" width="10.145004507211537" x="465.6350678849317" y="96.92061737378438"></rect><path clip-path="url(#clipPath4)" d="M475.7800598144531 96.92061614990234 L475.7800598144531 226.75 L485.7800598144531 216.75 L485.7800598144531 86.92061614990234" fill="rgb(178,0,0)" stroke="none"></path><path clip-path="url(#clipPath4)" d="M465.63507080078125 96.92061614990234 L475.63507080078125 86.92061614990234 L485.7800598144531 86.92061614990234 L475.7800598144531 96.92061614990234" fill="rgb(178,0,0)" stroke="none"></path><rect clip-path="url(#clipPath4)" fill="none" height="129.8293826262156" width="10.145004507211537" x="465.6350678849317" y="96.92061737378438"></rect><path clip-path="url(#clipPath4)" d="M475.7800598144531 96.92061614990234 L475.7800598144531 226.75 L485.7800598144531 216.75 L485.7800598144531 86.92061614990234" fill="none"></path><path clip-path="url(#clipPath4)" d="M465.63507080078125 96.92061614990234 L475.63507080078125 86.92061614990234 L485.7800598144531 86.92061614990234 L475.7800598144531 96.92061614990234" fill="none"></path><rect clip-path="url(#clipPath4)" fill="red" height="129.8293826262156" stroke="none" width="10.145004507211537" x="478.7549233378669" y="96.92061737378438"></rect><path clip-path="url(#clipPath4)" d="M488.8999328613281 96.92061614990234 L488.8999328613281 226.75 L498.8999328613281 216.75 L498.8999328613281 86.92061614990234" fill="rgb(178,0,0)" stroke="none"></path><path clip-path="url(#clipPath4)" d="M478.7549133300781 96.92061614990234 L488.7549133300781 86.92061614990234 L498.8999328613281 86.92061614990234 L488.8999328613281 96.92061614990234" fill="rgb(178,0,0)" stroke="none"></path><rect clip-path="url(#clipPath4)" fill="none" height="129.8293826262156" width="10.145004507211537" x="478.7549233378669" y="96.92061737378438"></rect><path clip-path="url(#clipPath4)" d="M488.8999328613281 96.92061614990234 L488.8999328613281 226.75 L498.8999328613281 216.75 L498.8999328613281 86.92061614990234" fill="none"></path><path clip-path="url(#clipPath4)" d="M478.7549133300781 96.92061614990234 L488.7549133300781 86.92061614990234 L498.8999328613281 86.92061614990234 L488.8999328613281 96.92061614990234" fill="none"></path><rect clip-path="url(#clipPath4)" fill="red" height="130.2283298452695" stroke="none" width="10.145004507211537" x="491.8747787908021" y="96.52167015473046"></rect><path clip-path="url(#clipPath4)" d="M502.019775390625 96.52166748046875 L502.019775390625 226.75 L512.019775390625 216.75 L512.019775390625 86.52166748046875" fill="rgb(178,0,0)" stroke="none"></path><path clip-path="url(#clipPath4)" d="M491.8747863769531 96.52166748046875 L501.8747863769531 86.52166748046875 L512.019775390625 86.52166748046875 L502.019775390625 96.52166748046875" fill="rgb(178,0,0)" stroke="none"></path><rect clip-path="url(#clipPath4)" fill="none" height="130.2283298452695" width="10.145004507211537" x="491.8747787908021" y="96.52167015473046"></rect><path clip-path="url(#clipPath4)" d="M502.019775390625 96.52166748046875 L502.019775390625 226.75 L512.019775390625 216.75 L512.019775390625 86.52166748046875" fill="none"></path><path clip-path="url(#clipPath4)" d="M491.8747863769531 96.52166748046875 L501.8747863769531 86.52166748046875 L512.019775390625 86.52166748046875 L502.019775390625 96.52166748046875" fill="none"></path><rect clip-path="url(#clipPath4)" fill="red" height="130.2283298452695" stroke="none" width="10.145004507211537" x="504.9946342437373" y="96.52167015473046"></rect><path clip-path="url(#clipPath4)" d="M515.1396484375 96.52166748046875 L515.1396484375 226.75 L525.1396484375 216.75 L525.1396484375 86.52166748046875" fill="rgb(178,0,0)" stroke="none"></path><path clip-path="url(#clipPath4)" d="M504.99462890625 96.52166748046875 L514.99462890625 86.52166748046875 L525.1396484375 86.52166748046875 L515.1396484375 96.52166748046875" fill="rgb(178,0,0)" stroke="none"></path><rect clip-path="url(#clipPath4)" fill="none" height="130.2283298452695" width="10.145004507211537" x="504.9946342437373" y="96.52167015473046"></rect><path clip-path="url(#clipPath4)" d="M515.1396484375 96.52166748046875 L515.1396484375 226.75 L525.1396484375 216.75 L525.1396484375 86.52166748046875" fill="none"></path><path clip-path="url(#clipPath4)" d="M504.99462890625 96.52166748046875 L514.99462890625 86.52166748046875 L525.1396484375 86.52166748046875 L515.1396484375 96.52166748046875" fill="none"></path><rect clip-path="url(#clipPath4)" fill="red" height="129.8293826262156" stroke="none" width="10.145004507211537" x="518.1144896966725" y="96.92061737378438"></rect><path clip-path="url(#clipPath4)" d="M528.259521484375 96.92061614990234 L528.259521484375 226.75 L538.259521484375 216.75 L538.259521484375 86.92061614990234" fill="rgb(178,0,0)" stroke="none"></path><path clip-path="url(#clipPath4)" d="M518.114501953125 96.92061614990234 L528.114501953125 86.92061614990234 L538.259521484375 86.92061614990234 L528.259521484375 96.92061614990234" fill="rgb(178,0,0)" stroke="none"></path><rect clip-path="url(#clipPath4)" fill="none" height="129.8293826262156" width="10.145004507211537" x="518.1144896966725" y="96.92061737378438"></rect><path clip-path="url(#clipPath4)" d="M528.259521484375 96.92061614990234 L528.259521484375 226.75 L538.259521484375 216.75 L538.259521484375 86.92061614990234" fill="none"></path><path clip-path="url(#clipPath4)" d="M518.114501953125 96.92061614990234 L528.114501953125 86.92061614990234 L538.259521484375 86.92061614990234 L528.259521484375 96.92061614990234" fill="none"></path><rect clip-path="url(#clipPath4)" fill="red" height="129.8293826262156" stroke="none" width="10.145004507211537" x="531.2343451496077" y="96.92061737378438"></rect><path clip-path="url(#clipPath4)" d="M541.3793334960938 96.92061614990234 L541.3793334960938 226.75 L551.3793334960938 216.75 L551.3793334960938 86.92061614990234" fill="rgb(178,0,0)" stroke="none"></path><path clip-path="url(#clipPath4)" d="M531.234375 96.92061614990234 L541.234375 86.92061614990234 L551.3793334960938 86.92061614990234 L541.3793334960938 96.92061614990234" fill="rgb(178,0,0)" stroke="none"></path><rect clip-path="url(#clipPath4)" fill="none" height="129.8293826262156" width="10.145004507211537" x="531.2343451496077" y="96.92061737378438"></rect><path clip-path="url(#clipPath4)" d="M541.3793334960938 96.92061614990234 L541.3793334960938 226.75 L551.3793334960938 216.75 L551.3793334960938 86.92061614990234" fill="none"></path><path clip-path="url(#clipPath4)" d="M531.234375 96.92061614990234 L541.234375 86.92061614990234 L551.3793334960938 86.92061614990234 L541.3793334960938 96.92061614990234" fill="none"></path><rect clip-path="url(#clipPath4)" fill="red" height="129.4304354071617" stroke="none" width="10.145004507211537" x="544.354200602543" y="97.31956459283828"></rect><path clip-path="url(#clipPath4)" d="M554.4992065429688 97.31956481933594 L554.4992065429688 226.75 L564.4992065429688 216.75 L564.4992065429688 87.31956481933594" fill="rgb(178,0,0)" stroke="none"></path><path clip-path="url(#clipPath4)" d="M544.3541870117188 97.31956481933594 L554.3541870117188 87.31956481933594 L564.4992065429688 87.31956481933594 L554.4992065429688 97.31956481933594" fill="rgb(178,0,0)" stroke="none"></path><rect clip-path="url(#clipPath4)" fill="none" height="129.4304354071617" width="10.145004507211537" x="544.354200602543" y="97.31956459283828"></rect><path clip-path="url(#clipPath4)" d="M554.4992065429688 97.31956481933594 L554.4992065429688 226.75 L564.4992065429688 216.75 L564.4992065429688 87.31956481933594" fill="none"></path><path clip-path="url(#clipPath4)" d="M544.3541870117188 97.31956481933594 L554.3541870117188 87.31956481933594 L564.4992065429688 87.31956481933594 L554.4992065429688 97.31956481933594" fill="none"></path><rect clip-path="url(#clipPath4)" fill="red" height="129.0314881881078" stroke="none" width="10.145004507211537" x="557.4740560554782" y="97.71851181189217"></rect><path clip-path="url(#clipPath4)" d="M567.6190795898438 97.71851348876953 L567.6190795898438 226.75 L577.6190795898438 216.75 L577.6190795898438 87.71851348876953" fill="rgb(178,0,0)" stroke="none"></path><path clip-path="url(#clipPath4)" d="M557.4740600585938 97.71851348876953 L567.4740600585938 87.71851348876953 L577.6190795898438 87.71851348876953 L567.6190795898438 97.71851348876953" fill="rgb(178,0,0)" stroke="none"></path><rect clip-path="url(#clipPath4)" fill="none" height="129.0314881881078" width="10.145004507211537" x="557.4740560554782" y="97.71851181189217"></rect><path clip-path="url(#clipPath4)" d="M567.6190795898438 97.71851348876953 L567.6190795898438 226.75 L577.6190795898438 216.75 L577.6190795898438 87.71851348876953" fill="none"></path><path clip-path="url(#clipPath4)" d="M557.4740600585938 97.71851348876953 L567.4740600585938 87.71851348876953 L577.6190795898438 87.71851348876953 L567.6190795898438 97.71851348876953" fill="none"></path><rect clip-path="url(#clipPath4)" fill="red" height="130.3423396118482" stroke="none" width="10.145004507211537" x="570.5939115084134" y="96.40766038815178"></rect><path clip-path="url(#clipPath4)" d="M580.7388916015625 96.40766143798828 L580.7388916015625 226.75 L590.7388916015625 216.75 L590.7388916015625 86.40766143798828" fill="rgb(178,0,0)" stroke="none"></path><path clip-path="url(#clipPath4)" d="M570.5939331054688 96.40766143798828 L580.5939331054688 86.40766143798828 L590.7388916015625 86.40766143798828 L580.7388916015625 96.40766143798828" fill="rgb(178,0,0)" stroke="none"></path><rect clip-path="url(#clipPath4)" fill="none" height="130.3423396118482" width="10.145004507211537" x="570.5939115084134" y="96.40766038815178"></rect><path clip-path="url(#clipPath4)" d="M580.7388916015625 96.40766143798828 L580.7388916015625 226.75 L590.7388916015625 216.75 L590.7388916015625 86.40766143798828" fill="none"></path><path clip-path="url(#clipPath4)" d="M570.5939331054688 96.40766143798828 L580.5939331054688 86.40766143798828 L590.7388916015625 86.40766143798828 L580.7388916015625 96.40766143798828" fill="none"></path></g></g></svg></svg>